<?xml version="1.0" encoding="UTF-8" standalone="no"?>
<!-- Created with Inkscape (http://www.inkscape.org/) -->

<svg
   xmlns:osb="http://www.openswatchbook.org/uri/2009/osb"
   xmlns:dc="http://purl.org/dc/elements/1.1/"
   xmlns:cc="http://creativecommons.org/ns#"
   xmlns:rdf="http://www.w3.org/1999/02/22-rdf-syntax-ns#"
   xmlns:svg="http://www.w3.org/2000/svg"
   xmlns="http://www.w3.org/2000/svg"
   xmlns:xlink="http://www.w3.org/1999/xlink"
   xmlns:sodipodi="http://sodipodi.sourceforge.net/DTD/sodipodi-0.dtd"
   xmlns:inkscape="http://www.inkscape.org/namespaces/inkscape"
   width="369.77615"
   height="369.10794"
   id="svg3033"
   version="1.1"
   inkscape:version="0.48.2 r9819"
   sodipodi:docname="gg-icon-draft.svg"
   inkscape:export-filename="/home/robru/Pictures/16.png"
   inkscape:export-xdpi="4.8099999"
   inkscape:export-ydpi="4.8099999">
  <title
     id="title3914">GottenGeography Icon</title>
  <defs
     id="defs3035">
    <linearGradient
       id="linearGradient4002">
      <stop
         style="stop-color:#414141;stop-opacity:1;"
         offset="0"
         id="stop4004" />
      <stop
         style="stop-color:#000000;stop-opacity:1;"
         offset="1"
         id="stop4006" />
    </linearGradient>
    <linearGradient
       id="linearGradient3982">
      <stop
         style="stop-color:#cecece;stop-opacity:1;"
         offset="0"
         id="stop3984" />
      <stop
         style="stop-color:#595959;stop-opacity:1;"
         offset="1"
         id="stop3986" />
    </linearGradient>
    <linearGradient
       id="linearGradient3966">
      <stop
         id="stop3968"
         offset="0"
         style="stop-color:#e1e1e1;stop-opacity:1;" />
      <stop
         id="stop3970"
         offset="1"
         style="stop-color:#828282;stop-opacity:1" />
    </linearGradient>
    <linearGradient
       id="linearGradient5826">
      <stop
         id="stop5828"
         offset="0"
         style="stop-color:#ff0000;stop-opacity:1;" />
      <stop
         id="stop5830"
         offset="1"
         style="stop-color:#00b200;stop-opacity:1;" />
    </linearGradient>
    <linearGradient
       id="linearGradient5802"
       osb:paint="solid">
      <stop
         style="stop-color:#008d00;stop-opacity:1;"
         offset="0"
         id="stop5804" />
    </linearGradient>
    <linearGradient
       id="linearGradient3536">
      <stop
         style="stop-color:#749449;stop-opacity:1;"
         offset="0"
         id="stop3538" />
      <stop
         style="stop-color:#42552a;stop-opacity:1;"
         offset="1"
         id="stop3540" />
    </linearGradient>
    <linearGradient
       id="linearGradient3053">
      <stop
         style="stop-color:#59568c;stop-opacity:1;"
         offset="0"
         id="stop3055" />
      <stop
         style="stop-color:#060735;stop-opacity:1;"
         offset="1"
         id="stop3057" />
    </linearGradient>
    <radialGradient
       inkscape:collect="always"
       xlink:href="#linearGradient3053"
       id="radialGradient4320"
       gradientUnits="userSpaceOnUse"
       gradientTransform="matrix(1.9202411,0,2.1200403e-8,1.6485954,-309.40681,-347.25357)"
       cx="331.50873"
       cy="524.3941"
       fx="331.50873"
       fy="524.3941"
       r="115.84531" />
    <radialGradient
       inkscape:collect="always"
       xlink:href="#linearGradient5826"
       id="radialGradient5824"
       cx="299.69196"
       cy="523.02954"
       fx="299.69196"
       fy="523.02954"
       r="108.0886"
       gradientTransform="matrix(1.4024474,0.01387759,-0.0111919,1.1310459,-122.92018,-78.099421)"
       gradientUnits="userSpaceOnUse"
       spreadMethod="repeat" />
    <radialGradient
       inkscape:collect="always"
       xlink:href="#linearGradient5826"
       id="radialGradient3016"
       gradientUnits="userSpaceOnUse"
       gradientTransform="matrix(1.4533317,-0.09251669,0.07185859,1.1288164,-181.60766,-45.04781)"
       spreadMethod="repeat"
       cx="315.52835"
       cy="536.72986"
       fx="315.52835"
       fy="536.72986"
       r="108.0886" />
    <radialGradient
       inkscape:collect="always"
       xlink:href="#linearGradient3536"
       id="radialGradient3792"
       cx="5656.1836"
       cy="10458.146"
       fx="5656.1836"
       fy="10458.146"
       r="5097.6172"
       gradientTransform="matrix(1,0,0,1.1311013,0,-1048.565)"
       gradientUnits="userSpaceOnUse" />
    <filter
       inkscape:collect="always"
       id="filter3877"
       x="-0.098211586"
       width="1.1964232"
       y="-0.5192796"
       height="2.0385592"
       color-interpolation-filters="sRGB">
      <feGaussianBlur
         inkscape:collect="always"
         stdDeviation="11.570997"
         id="feGaussianBlur3879" />
    </filter>
    <clipPath
       clipPathUnits="userSpaceOnUse"
       id="clipPath3900">
      <path
         id="path3902"
         d="m 501.4971,558.23566 c 0,58.43202 -65.43347,105.80054 -146.14976,105.80054 -80.71628,0 -146.14976,-47.36852 -146.14976,-105.80054 0,-58.43203 65.43348,-105.80055 146.14976,-105.80055 80.71629,0 146.14976,47.36852 146.14976,105.80055 z"
         style="fill:url(#radialGradient3904);fill-opacity:1;fill-rule:evenodd;stroke:none"
         inkscape:connector-curvature="0" />
    </clipPath>
    <radialGradient
       inkscape:collect="always"
       xlink:href="#linearGradient3053"
       id="radialGradient3904"
       gradientUnits="userSpaceOnUse"
       gradientTransform="matrix(2.4330662,0,2.6862243e-8,1.512175,-494.59043,-283.78182)"
       cx="331.50873"
       cy="524.3941"
       fx="331.50873"
       fy="524.3941"
       r="115.84531" />
    <clipPath
       clipPathUnits="userSpaceOnUse"
       id="clipPath3908">
      <path
         id="path3910"
         d="m 444.23218,563.22626 c 0,63.70345 -51.64185,115.3453 -115.34531,115.3453 -63.70345,0 -115.34531,-51.64185 -115.34531,-115.3453 0,-63.70346 51.64186,-115.34531 115.34531,-115.34531 63.70346,0 115.34531,51.64185 115.34531,115.34531 z"
         style="fill:url(#radialGradient3912);fill-opacity:1;fill-rule:evenodd;stroke:none"
         inkscape:connector-curvature="0" />
    </clipPath>
    <radialGradient
       inkscape:collect="always"
       xlink:href="#linearGradient3053"
       id="radialGradient3912"
       gradientUnits="userSpaceOnUse"
       gradientTransform="matrix(1.9202411,0,2.1200403e-8,1.6485954,-341.90681,-354.75357)"
       cx="331.50873"
       cy="524.3941"
       fx="331.50873"
       fy="524.3941"
       r="115.84531" />
    <radialGradient
       inkscape:collect="always"
       xlink:href="#linearGradient3966"
       id="radialGradient3964"
       cx="317.77533"
       cy="599.22961"
       fx="317.77533"
       fy="599.22961"
       r="12.375"
       gradientTransform="matrix(1.071316,0.15909724,-0.60089554,3.9657409,337.52569,-1827.2422)"
       gradientUnits="userSpaceOnUse" />
    <radialGradient
       inkscape:collect="always"
       xlink:href="#linearGradient3966"
       id="radialGradient3978"
       cx="212.29918"
       cy="596.58545"
       fx="212.29918"
       fy="596.58545"
       r="6.125"
       gradientTransform="matrix(1.196622,-0.00349763,0.01578849,5.5343519,-50.684197,-2703.486)"
       gradientUnits="userSpaceOnUse" />
    <radialGradient
       inkscape:collect="always"
       xlink:href="#linearGradient3966"
       id="radialGradient3980"
       cx="213.15031"
       cy="592.97961"
       fx="213.15031"
       fy="592.97961"
       r="2.625"
       gradientTransform="matrix(0.9522662,-0.01439112,0.22675738,14.212458,-124.54925,-7830.9022)"
       gradientUnits="userSpaceOnUse" />
    <radialGradient
       inkscape:collect="always"
       xlink:href="#linearGradient3982"
       id="radialGradient3988"
       cx="263.49359"
       cy="618.07202"
       fx="263.49359"
       fy="618.07202"
       r="65.241524"
       gradientTransform="matrix(3.0263558,1.4803303,-1.4208867,2.9188458,294.44193,-1574.2035)"
       gradientUnits="userSpaceOnUse" />
    <radialGradient
       inkscape:collect="always"
       xlink:href="#linearGradient4002"
       id="radialGradient4008"
       cx="212.1133"
       cy="611.45404"
       fx="212.1133"
       fy="611.45404"
       r="79.86174"
       gradientTransform="matrix(3.5078554,1.3212959,-0.79087815,2.1186647,-48.309088,-936.71913)"
       gradientUnits="userSpaceOnUse" />
  </defs>
  <sodipodi:namedview
     id="base"
     pagecolor="#000000"
     bordercolor="#666666"
     borderopacity="1.0"
     inkscape:pageopacity="0"
     inkscape:pageshadow="2"
     inkscape:zoom="1"
     inkscape:cx="211.2198"
     inkscape:cy="303.84064"
     inkscape:document-units="px"
     inkscape:current-layer="layer1"
     showgrid="true"
     inkscape:window-width="511"
     inkscape:window-height="438"
     inkscape:window-x="2153"
     inkscape:window-y="193"
     inkscape:window-maximized="0"
     showguides="false"
     fit-margin-top="1.7"
     fit-margin-left="1"
     fit-margin-right="1"
     fit-margin-bottom="1.7"
     units="cm"
     borderlayer="true"
     inkscape:showpageshadow="true">
    <sodipodi:guide
       position="98.726089,148.83243"
       orientation="84.81134,0"
       id="guide3263" />
    <sodipodi:guide
       position="98.726089,64.021086"
       orientation="0,130.48303"
       id="guide3265" />
    <sodipodi:guide
       position="229.20912,64.021086"
       orientation="-84.81134,0"
       id="guide3267" />
    <sodipodi:guide
       position="229.20912,148.83243"
       orientation="0,-130.48303"
       id="guide3269" />
    <inkscape:grid
       type="xygrid"
       id="grid3063"
       empspacing="5"
       visible="true"
       enabled="true"
       snapvisiblegridlinesonly="true" />
  </sodipodi:namedview>
  <metadata
     id="metadata3038">
    <rdf:RDF>
      <cc:Work
         rdf:about="">
        <dc:format>image/svg+xml</dc:format>
        <dc:type
           rdf:resource="http://purl.org/dc/dcmitype/StillImage" />
        <dc:title>GottenGeography Icon</dc:title>
        <cc:license
           rdf:resource="http://creativecommons.org/licenses/by-nc-sa/3.0/" />
        <dc:creator>
          <cc:Agent>
            <dc:title>Robert Park &lt;rbpark@exolucere.ca&gt;</dc:title>
          </cc:Agent>
        </dc:creator>
      </cc:Work>
      <cc:License
         rdf:about="http://creativecommons.org/licenses/by-nc-sa/3.0/">
        <cc:permits
           rdf:resource="http://creativecommons.org/ns#Reproduction" />
        <cc:permits
           rdf:resource="http://creativecommons.org/ns#Distribution" />
        <cc:requires
           rdf:resource="http://creativecommons.org/ns#Notice" />
        <cc:requires
           rdf:resource="http://creativecommons.org/ns#Attribution" />
        <cc:prohibits
           rdf:resource="http://creativecommons.org/ns#CommercialUse" />
        <cc:permits
           rdf:resource="http://creativecommons.org/ns#DerivativeWorks" />
        <cc:requires
           rdf:resource="http://creativecommons.org/ns#ShareAlike" />
      </cc:License>
    </rdf:RDF>
  </metadata>
  <g
     inkscape:label="Layer 1"
     inkscape:groupmode="layer"
     id="layer1"
     transform="translate(-142.38909,-395.14472)">
    <rect
       ry="1.5062116"
       y="590.25269"
       x="210.38908"
       height="6.951746"
       width="5.0000005"
       id="rect3950"
       style="fill:url(#radialGradient3980);fill-opacity:1;stroke:none" />
    <rect
       style="fill:url(#radialGradient3978);fill-opacity:1;stroke:none"
       id="rect3948"
       width="12"
       height="6.201746"
       x="207.38908"
       y="595.25269"
       ry="1.8605238" />
    <path
       style="fill:url(#radialGradient4320);fill-opacity:1;fill-rule:evenodd;stroke:none"
       d="m 476.73218,570.72626 c 0,63.70345 -51.64185,115.3453 -115.34531,115.3453 -63.70345,0 -115.34531,-51.64185 -115.34531,-115.3453 0,-63.70346 51.64186,-115.34531 115.34531,-115.34531 63.70346,0 115.34531,51.64185 115.34531,115.34531 z"
       id="earth"
       inkscape:connector-curvature="0" />
    <g
       id="america"
       style="fill:url(#radialGradient5824);fill-opacity:1;stroke:none"
       transform="translate(32.5,7.5)"
       clip-path="url(#clipPath3908)">
      <g
         id="g3447"
         transform="matrix(0.02120375,0,0,-0.02120375,184.59606,745.22037)"
         style="fill:url(#radialGradient3016);fill-opacity:1;stroke:none">
        <path
           style="fill:url(#radialGradient3792);fill-opacity:1;stroke:none"
           d="m 7552,8740 c -33,-16 -34,-30 0,-30 13,0 18,-8 18,-28 0,-15 5,-33 12,-40 19,-19 -18,-26 -79,-15 -48,9 -55,8 -63,-8 -8,-14 -4,-21 22,-33 34,-17 52,-21 44,-8 -2,4 22,8 55,7 55,0 63,-3 81,-28 l 20,-28 25,35 c 24,36 38,44 45,26 2,-6 14,-4 31,5 29,15 90,12 95,-5 2,-5 11,-10 20,-10 8,0 12,3 9,7 -4,3 1,12 11,19 16,12 14,16 -20,49 -20,19 -46,35 -57,35 -12,0 -21,6 -21,14 0,20 -82,40 -136,31 -33,-5 -50,-3 -62,8 -15,12 -22,11 -50,-3 z m -662,279 c -14,-4 -46,-13 -72,-20 -26,-6 -55,-20 -64,-30 -9,-11 -24,-19 -33,-19 -14,0 -14,-2 -1,-10 13,-8 11,-11 -7,-16 -30,-8 -29,-20 1,-26 14,-3 34,3 47,13 13,10 31,19 40,19 9,0 26,9 39,20 16,14 36,20 64,19 23,-1 33,-3 24,-6 -10,-2 -18,-8 -18,-13 0,-9 62,-30 90,-30 8,0 38,-11 65,-25 30,-14 59,-22 73,-18 18,4 22,1 22,-20 0,-13 7,-30 15,-37 8,-7 15,-18 15,-25 0,-7 7,-18 15,-25 9,-7 14,-19 11,-26 -7,-17 204,-12 249,5 l 29,12 -29,24 c -17,13 -42,24 -56,25 -18,0 -26,5 -25,16 1,11 -13,21 -42,29 -42,13 -102,63 -102,87 0,6 -3,9 -6,5 -4,-3 -13,0 -21,8 -17,18 -47,20 -37,3 5,-8 2,-9 -10,-5 -10,4 -24,7 -32,7 -8,0 -13,5 -11,12 6,30 -172,66 -233,47 z m 365,-229 c 4,-6 -7,-10 -24,-10 -17,0 -31,5 -31,10 0,6 11,10 24,10 14,0 28,-4 31,-10 z m -3552,3226 c -28,-12 -55,-25 -59,-29 -4,-4 -17,-7 -29,-7 -13,0 -28,-7 -35,-15 -7,-8 -16,-13 -20,-10 -13,8 -70,-16 -80,-34 -14,-27 3,-45 36,-36 16,5 36,9 44,11 8,2 23,7 35,13 11,6 37,17 58,25 32,13 42,26 39,56 0,3 15,4 34,2 31,-4 34,-2 34,22 0,14 -1,26 -2,25 -2,0 -26,-11 -55,-23 z m 4432,1172 c -27,-5 -68,-10 -90,-11 -22,-2 -58,-9 -79,-16 -31,-11 -36,-15 -23,-23 24,-13 9,-38 -24,-38 -16,0 -29,5 -29,10 0,13 -36,13 -61,0 -25,-14 -14,-35 32,-58 25,-12 34,-23 33,-40 -1,-27 1,-27 124,-1 51,10 70,20 107,56 25,23 45,52 45,63 0,11 7,20 15,20 16,0 17,6 7,30 -6,13 -16,14 -57,8 z m 15,-69 c 13,-9 13,-10 -2,-6 -9,3 -18,1 -21,-6 -2,-6 -6,-4 -10,6 -7,19 10,23 33,6 z m -1323,94 c -17,-3 -32,-14 -39,-29 -6,-13 -17,-24 -23,-24 -7,0 -33,-11 -59,-25 -26,-14 -52,-25 -58,-25 -6,0 -19,-6 -27,-14 -9,-7 -37,-21 -63,-31 -26,-10 -45,-21 -42,-26 2,-4 10,-6 17,-4 19,7 50,-22 43,-40 -9,-23 15,-28 65,-12 24,8 62,15 83,16 22,1 51,10 65,20 34,24 149,62 156,51 3,-4 -10,-11 -28,-14 -17,-4 -41,-13 -51,-21 -19,-15 -19,-15 -1,-28 17,-13 16,-15 -13,-25 -37,-13 -38,-15 -16,-36 13,-14 31,-15 107,-10 103,8 101,8 141,6 16,-1 27,-5 23,-8 -3,-3 -57,-7 -119,-9 -150,-3 -198,-12 -198,-36 0,-33 28,-49 88,-49 43,0 53,-3 44,-12 -7,-7 -12,-19 -12,-28 0,-15 12,-16 88,-14 48,2 110,8 137,14 28,6 70,13 95,15 l 45,4 -40,-8 c -82,-17 -101,-30 -95,-70 1,-10 -7,-12 -37,-6 -41,7 -50,12 -41,21 4,3 15,1 26,-5 24,-13 36,-3 17,15 -11,11 -20,12 -42,3 -56,-22 -182,-31 -217,-15 -14,7 -17,6 -12,-2 5,-9 -6,-12 -39,-10 -53,2 -42,14 23,24 52,8 62,22 33,45 -16,13 -38,18 -79,17 -31,-1 -79,6 -105,15 -26,9 -54,17 -61,17 -8,0 -19,7 -26,15 -17,20 -98,20 -138,-1 -18,-8 -41,-13 -52,-9 -21,7 -28,25 -10,25 6,0 10,-4 10,-10 0,-5 5,-10 11,-10 5,0 8,4 5,9 -3,5 1,11 9,15 8,3 15,10 15,16 0,12 -48,3 -70,-14 -14,-12 -66,-36 -76,-36 -2,0 -1,18 2,40 5,32 3,41 -11,46 -9,4 -20,2 -25,-5 -10,-17 -58,-41 -81,-41 -13,0 -17,5 -12,17 5,13 3,15 -13,9 -10,-5 -28,-10 -39,-11 -68,-10 -189,-36 -203,-45 -13,-8 -10,-9 13,-5 26,5 27,5 11,-5 -14,-10 -24,-9 -45,1 -28,14 -121,19 -121,7 0,-5 -9,-8 -19,-8 -11,0 -27,-8 -36,-17 -29,-29 -141,-12 -129,20 3,9 -10,13 -48,15 -69,3 -108,11 -108,24 0,5 -30,9 -72,8 -40,0 -102,4 -138,10 -36,6 -103,14 -150,18 -63,5 -84,10 -82,20 2,11 -10,13 -53,10 -39,-2 -56,1 -60,11 -3,7 -12,11 -20,7 -8,-3 -18,1 -23,10 -7,12 -16,11 -67,-7 -33,-11 -89,-22 -125,-24 -36,-2 -92,-10 -125,-19 -32,-9 -73,-16 -91,-16 -35,0 -111,-25 -195,-64 -34,-16 -91,-31 -140,-37 -46,-6 -97,-17 -112,-25 -16,-8 -37,-14 -48,-14 -25,0 -24,-17 1,-25 27,-9 46,-43 31,-58 -17,-17 -13,-27 9,-27 14,0 18,-5 13,-17 -9,-25 -43,-53 -62,-52 -28,2 -77,17 -60,18 9,0 22,8 29,16 16,20 5,20 -85,-1 -86,-19 -134,-30 -205,-44 -61,-13 -82,-26 -57,-36 15,-6 15,-9 -3,-34 -27,-37 -16,-43 73,-42 39,1 76,-3 82,-8 8,-7 24,-5 48,5 42,17 71,20 47,5 -12,-8 -12,-10 -1,-10 21,0 -35,-49 -64,-56 -14,-3 -41,-3 -60,0 -20,4 -35,3 -35,-3 0,-16 -62,-32 -98,-25 -34,7 -60,-2 -114,-38 -14,-10 -33,-18 -42,-18 -16,0 -87,-30 -96,-41 -3,-3 -18,-9 -33,-13 -28,-7 -53,-48 -41,-67 3,-5 -6,-13 -19,-18 -21,-8 -25,-16 -24,-45 1,-32 4,-36 26,-36 15,0 43,4 63,9 34,8 37,7 28,-9 -6,-10 -19,-21 -29,-25 -11,-3 -26,-17 -35,-30 -9,-14 -24,-25 -33,-25 -12,0 -14,-3 -6,-11 8,-8 17,-8 33,1 15,8 20,8 16,1 -10,-15 0,-14 34,4 35,18 84,10 76,-11 -7,-19 24,-18 38,2 9,11 18,13 36,6 24,-9 24,-9 -20,-42 -25,-18 -65,-41 -90,-52 -25,-11 -54,-23 -65,-28 -11,-5 -54,-20 -95,-33 -91,-30 -130,-47 -130,-59 0,-5 -9,-4 -19,1 -19,11 -51,2 -166,-42 -67,-26 -79,-29 -117,-33 -48,-5 -123,-43 -110,-56 6,-6 17,-6 30,1 11,6 33,11 49,11 15,0 41,7 58,16 16,8 39,13 50,10 11,-3 29,2 39,9 10,8 22,12 27,10 4,-3 10,-1 14,5 11,19 56,11 62,-10 6,-23 14,-25 31,-8 8,8 15,8 26,-1 12,-10 17,-8 26,8 9,17 8,21 -5,21 -8,0 -15,7 -15,16 0,12 6,15 25,10 16,-4 34,0 50,10 13,8 29,13 34,9 12,-7 78,21 99,42 8,7 18,11 23,8 5,-4 9,-1 9,5 0,6 12,8 31,5 18,-3 28,-2 25,4 -3,5 12,12 34,16 22,4 50,14 62,24 19,14 46,25 118,46 3,1 18,7 33,13 16,7 36,12 45,12 9,0 35,11 57,25 22,13 50,25 61,25 30,0 53,28 33,41 -11,7 -10,9 6,10 11,1 25,1 31,0 7,-1 14,5 18,14 3,8 17,15 31,15 14,0 25,5 25,10 0,6 8,10 18,10 10,0 26,6 37,13 28,19 55,28 55,18 0,-4 -12,-13 -26,-19 -14,-7 -22,-17 -19,-22 4,-6 -7,-15 -24,-21 -17,-6 -31,-15 -31,-20 0,-16 53,-9 123,15 37,13 67,22 67,19 0,-3 6,-1 13,5 15,13 76,17 99,7 11,-4 35,2 63,15 41,20 59,40 35,40 -5,0 -10,-4 -10,-10 0,-5 -4,-10 -9,-10 -5,0 -8,8 -6,18 1,11 10,16 24,15 11,-2 21,2 21,7 0,6 11,10 25,10 29,0 30,-22 1,-30 -11,-3 -21,-11 -23,-17 -3,-9 5,-9 30,-1 24,7 43,7 63,0 28,-10 28,-11 7,-17 -13,-4 -23,-12 -23,-17 0,-6 7,-7 18,-2 9,4 49,9 88,12 54,3 79,0 104,-13 20,-10 42,-14 59,-11 17,5 22,4 12,-3 -11,-7 -9,-13 12,-31 14,-12 28,-33 31,-46 4,-13 11,-24 16,-24 16,0 -2,-74 -24,-99 -14,-16 -16,-22 -6,-19 11,4 15,-1 15,-17 0,-13 -3,-21 -7,-18 -5,2 -8,-3 -8,-11 0,-23 16,-20 34,6 9,12 18,19 21,16 3,-3 -8,-17 -25,-31 -36,-31 -37,-37 -7,-38 l 22,0 -22,-9 c -19,-8 -22,-16 -19,-42 3,-28 7,-33 33,-35 20,-2 37,4 48,17 17,19 19,19 31,2 12,-16 13,-15 24,8 l 10,25 -5,-27 c -3,-15 -1,-30 5,-33 5,-3 10,-12 10,-18 0,-8 -3,-7 -9,2 -7,11 -11,10 -19,-5 -6,-10 -14,-16 -17,-12 -10,10 -38,-19 -30,-31 3,-5 1,-12 -5,-16 -15,-10 -12,-22 12,-45 12,-11 16,-20 9,-20 -7,0 -11,-9 -9,-22 2,-13 9,-22 17,-20 9,2 7,-8 -7,-32 -14,-23 -17,-38 -10,-42 7,-4 6,-9 -2,-14 -10,-6 -5,-15 16,-36 21,-20 24,-25 9,-19 -26,10 -44,10 -72,1 -14,-4 -23,-3 -23,3 0,5 10,12 23,14 19,3 19,4 -3,3 -21,-1 -25,-6 -23,-28 1,-16 -3,-28 -10,-28 -7,0 -1,-6 13,-13 14,-7 26,-18 26,-25 1,-7 2,-16 3,-21 0,-5 10,-13 21,-16 11,-4 18,-11 15,-16 -4,-5 1,-12 9,-15 9,-3 13,-10 10,-15 -3,-5 1,-9 8,-9 7,0 21,-7 32,-15 17,-13 17,-14 -9,-12 -30,2 -34,-3 -59,-81 -17,-52 -74,-158 -99,-184 -7,-7 -24,-29 -37,-48 -13,-19 -42,-54 -64,-78 -55,-59 -73,-89 -91,-147 -8,-27 -32,-72 -54,-98 -34,-40 -38,-51 -29,-67 9,-14 7,-26 -6,-55 -15,-30 -16,-42 -7,-62 7,-14 9,-33 6,-43 -3,-10 -1,-21 4,-24 5,-4 7,-22 4,-42 -4,-25 -2,-39 8,-45 12,-8 12,-10 0,-18 -13,-8 -13,-18 -1,-68 8,-32 14,-74 14,-93 1,-33 3,-35 39,-38 24,-2 37,-8 37,-18 0,-12 19,-19 44,-15 5,1 6,-5 3,-14 -4,-9 -1,-15 7,-15 25,0 45,-35 45,-80 0,-44 8,-165 11,-165 1,0 3,-24 5,-54 3,-39 9,-57 24,-67 11,-8 29,-30 41,-49 21,-33 21,-37 6,-60 -16,-25 -25,-29 -58,-26 -10,1 -18,-1 -18,-6 0,-17 82,-103 92,-97 12,8 78,-61 78,-80 0,-8 -7,-27 -15,-42 -8,-16 -15,-36 -15,-44 0,-20 19,-40 38,-40 23,0 92,-80 92,-107 0,-16 4,-23 13,-19 6,3 20,9 31,12 15,6 17,14 12,43 -3,20 -6,44 -6,54 0,9 -5,17 -11,17 -5,0 -7,-6 -4,-12 4,-7 -2,-2 -13,11 -19,23 -20,23 -25,5 -3,-14 -5,-12 -6,8 0,15 4,30 9,33 15,9 12,25 -4,25 -15,0 -28,58 -14,66 4,3 8,10 8,15 0,6 -4,7 -10,4 -6,-3 -10,5 -10,18 0,25 -38,109 -52,115 -12,6 -9,57 4,70 6,6 8,15 4,19 -4,4 -11,1 -16,-7 -8,-12 -10,-10 -10,7 0,12 -4,25 -10,28 -5,3 -10,11 -10,18 0,6 7,2 16,-9 15,-18 15,-18 9,11 -8,37 -14,43 -24,26 -6,-9 -13,-4 -28,19 -18,28 -18,36 -7,91 14,70 17,74 41,64 10,-5 22,-7 26,-6 14,3 50,-38 45,-51 -3,-7 -2,-38 2,-68 5,-39 4,-63 -6,-81 -12,-25 -10,-39 7,-39 4,0 5,10 2,23 -3,13 3,8 13,-13 10,-19 24,-41 31,-48 7,-7 13,-17 13,-22 0,-5 8,-11 19,-15 13,-4 17,-12 13,-31 -3,-20 0,-26 17,-31 11,-3 21,-13 21,-23 0,-10 10,-20 22,-23 20,-6 20,-7 5,-31 -10,-14 -17,-31 -17,-37 0,-13 38,-49 52,-49 5,0 14,-12 21,-27 6,-16 23,-39 38,-53 14,-14 34,-41 44,-60 9,-19 28,-49 40,-66 22,-28 26,-50 26,-134 0,-62 -2,-70 -17,-70 -21,0 -17,-44 9,-83 12,-19 38,-43 57,-53 19,-10 39,-29 44,-41 9,-20 67,-46 102,-46 9,0 30,-14 48,-32 30,-31 133,-85 161,-85 7,0 20,-6 27,-12 21,-20 74,-48 91,-48 8,0 27,-6 42,-14 29,-15 59,-10 117,18 17,9 39,16 48,16 41,0 91,-32 129,-83 62,-83 92,-107 147,-116 27,-4 58,-12 69,-18 57,-30 96,-41 139,-38 37,2 44,0 32,-9 -14,-9 -11,-17 22,-53 91,-104 109,-138 89,-171 -13,-20 2,-50 33,-66 27,-13 31,-13 40,2 9,16 9,16 10,0 0,-9 15,-24 34,-33 35,-17 52,-40 36,-50 -12,-7 -1,-35 13,-35 6,0 21,-10 34,-22 21,-19 23,-20 23,-4 0,12 5,16 16,12 9,-3 24,-6 34,-6 21,0 35,-29 20,-44 -14,-14 -12,-26 5,-26 9,0 12,6 9,15 -9,24 22,8 40,-21 16,-23 17,-23 51,-7 38,18 42,29 20,59 -20,26 -19,27 15,42 17,8 30,20 30,27 0,7 7,15 15,19 14,5 22,66 9,66 -3,0 -35,-16 -70,-35 -72,-40 -80,-41 -106,-18 -13,11 -18,12 -18,3 0,-10 -3,-10 -14,0 -8,6 -13,17 -10,24 3,7 -7,18 -21,24 -14,6 -25,18 -25,27 0,8 -5,15 -10,15 -6,0 -15,12 -20,28 -6,15 -15,37 -21,48 -8,16 -8,27 0,42 6,11 11,32 11,46 0,14 5,26 10,26 6,0 10,24 10,53 0,33 7,66 19,88 11,20 17,46 15,57 -3,11 -1,23 6,27 7,4 1,15 -17,31 -15,13 -35,31 -44,39 -20,19 -139,36 -156,23 -14,-11 -97,-13 -113,-3 -6,4 -17,1 -25,-5 -12,-10 -18,-10 -30,0 -8,6 -20,8 -27,4 -7,-4 0,6 15,23 16,17 30,46 34,69 3,21 10,45 16,52 5,6 7,12 4,12 -3,0 5,11 18,25 14,13 25,31 25,39 0,8 5,27 12,43 6,15 12,36 12,45 1,9 4,20 9,24 4,4 7,15 7,24 0,10 7,23 15,30 13,11 14,10 9,-4 -9,-23 9,-20 24,4 8,13 8,20 2,20 -7,0 -7,7 0,21 7,11 9,31 6,44 -6,22 -10,23 -68,20 -35,-1 -93,-10 -129,-19 -52,-14 -69,-22 -78,-42 -6,-14 -11,-30 -11,-35 0,-6 -11,-34 -24,-62 -24,-54 -68,-86 -126,-93 -54,-6 -130,-23 -150,-34 -18,-10 -25,-8 -46,13 -13,14 -37,27 -52,30 -27,6 -43,30 -57,92 -3,17 -14,38 -23,48 -9,10 -17,37 -18,60 -1,23 -6,53 -11,67 -6,14 -9,34 -7,45 16,99 54,213 84,255 14,20 22,49 25,91 6,91 28,118 159,196 146,88 198,107 223,82 5,-5 33,-11 62,-11 35,-1 51,-6 51,-15 0,-7 6,-14 13,-15 42,-5 73,-3 79,6 7,11 40,18 34,8 -2,-4 -1,-15 3,-25 6,-16 8,-16 26,-2 20,15 20,15 -3,33 -22,17 -22,18 -3,34 10,8 20,21 23,28 6,19 216,22 246,4 12,-8 22,-21 22,-28 0,-25 33,-28 62,-6 34,25 58,23 74,-8 6,-12 18,-30 27,-40 21,-23 21,-45 2,-81 -7,-15 -13,-39 -11,-52 7,-61 19,-109 27,-109 5,0 9,-7 9,-15 0,-8 9,-23 20,-32 11,-10 20,-30 20,-45 0,-21 4,-26 16,-21 9,3 20,0 25,-8 8,-12 11,-12 18,1 5,8 10,20 11,25 0,6 7,19 14,30 27,44 36,99 25,163 -5,35 -7,67 -4,72 3,4 -2,37 -11,71 -32,126 23,236 151,299 16,8 48,34 71,58 27,28 49,42 67,42 14,0 29,5 32,10 13,20 85,60 109,60 30,0 56,28 37,39 -9,6 0,15 28,28 38,19 40,19 30,2 -5,-11 -17,-19 -27,-20 -9,0 -12,-3 -5,-5 7,-3 21,0 32,6 18,9 21,20 21,78 0,38 -5,73 -10,78 -8,8 -7,20 1,40 6,16 13,38 15,48 6,34 21,38 19,6 -1,-17 -7,-36 -13,-42 -7,-7 -12,-21 -12,-32 0,-19 3,-17 24,9 13,16 22,34 19,39 -4,5 -1,6 5,2 7,-4 23,5 38,21 20,22 25,35 21,60 -3,18 -1,35 4,38 5,4 9,-1 9,-9 0,-23 6,-20 54,19 23,19 48,50 55,69 13,31 20,35 70,45 70,15 126,39 96,41 -11,1 1,8 28,15 26,7 56,11 66,8 10,-3 22,0 25,6 4,6 15,11 26,11 21,0 35,29 20,44 -7,7 -10,5 -10,-7 0,-24 -19,-21 -29,6 -7,15 -5,25 5,33 8,6 14,18 14,26 0,30 65,74 150,103 47,16 95,35 107,42 12,8 35,15 52,15 29,1 45,17 19,19 -18,1 23,16 58,22 16,3 41,10 56,16 16,6 30,7 33,1 3,-5 -25,-24 -61,-42 -58,-28 -68,-37 -70,-62 -2,-16 3,-35 11,-42 16,-16 45,-19 45,-4 0,6 9,10 20,10 11,0 20,4 20,9 0,14 78,63 89,56 6,-3 16,-3 23,1 22,14 172,63 177,59 2,-3 10,4 18,15 8,11 21,20 30,20 22,0 73,32 73,47 0,7 -7,13 -15,13 -18,0 -19,4 -3,30 10,15 10,22 0,32 -9,9 -25,-2 -72,-50 -33,-34 -60,-58 -60,-52 0,6 -9,6 -22,1 -27,-9 -111,6 -103,19 7,11 55,9 55,-2 0,-4 9,-8 20,-8 11,0 20,4 20,10 0,5 12,16 28,24 27,15 26,15 -28,16 -64,0 -83,9 -74,35 5,13 3,16 -7,13 -8,-3 -13,-10 -12,-16 2,-6 -4,-9 -12,-6 -19,8 -19,-10 0,-30 20,-20 19,-25 -5,-19 -21,6 -32,34 -27,67 2,11 19,35 38,53 l 34,34 -27,-6 c -41,-10 -34,3 12,21 80,32 58,90 -33,87 -61,-2 -193,-43 -253,-78 -56,-33 -62,-32 -22,4 39,33 113,71 141,71 11,0 32,13 47,29 14,17 38,35 54,41 17,6 111,10 238,9 126,-1 213,3 217,9 3,5 16,12 29,16 12,4 34,18 50,30 33,27 84,46 126,46 l 31,0 -45,-44 c -72,-69 -120,-123 -120,-135 0,-6 -7,-11 -15,-11 -9,0 -18,-7 -21,-15 -4,-8 -10,-12 -15,-9 -9,5 -39,-18 -39,-31 0,-3 10,-4 23,0 12,3 3,-6 -21,-21 -70,-43 -55,-54 83,-59 255,-11 235,-8 219,-26 -17,-18 -18,-39 -3,-39 5,0 8,4 4,9 -3,5 -1,13 5,16 6,4 10,3 9,-2 -5,-30 2,-40 26,-35 38,7 98,102 65,102 -5,0 -10,-4 -10,-10 0,-5 -4,-10 -8,-10 -5,0 -9,7 -9,15 0,8 4,12 8,10 3,-3 12,2 19,10 10,12 9,15 -4,15 -9,0 -24,-9 -33,-20 -10,-11 -22,-20 -27,-20 -5,0 1,11 13,24 17,18 19,25 9,29 -7,3 0,4 17,4 20,-2 30,3 33,15 2,12 -2,15 -17,11 -25,-6 -30,21 -6,31 22,8 18,25 -7,36 -13,5 -17,9 -10,9 7,1 10,6 6,13 -5,7 -11,5 -21,-7 -7,-11 -13,-13 -13,-7 0,7 -7,12 -15,12 -8,0 -15,-3 -15,-8 0,-4 -13,-8 -29,-8 -21,-1 -28,2 -24,12 3,8 11,14 19,14 27,0 14,18 -18,24 l -33,7 34,29 c 23,19 37,26 42,19 9,-16 21,5 13,25 -3,9 -2,16 4,16 5,0 12,7 16,15 4,11 -2,15 -22,15 -19,0 -23,-3 -14,-9 9,-5 3,-8 -17,-7 -17,1 -31,2 -31,3 0,2 20,12 45,24 42,20 49,28 61,81 16,64 13,77 -18,83 -34,8 -54,45 -32,58 23,13 -13,42 -48,38 -18,-1 -28,2 -26,10 3,14 -46,30 -70,22 -10,-3 -13,-1 -7,4 19,15 16,35 -9,58 -24,22 -24,24 -7,30 19,6 26,50 10,61 -5,3 -2,16 7,29 14,22 14,24 -4,34 -14,7 -20,21 -20,44 0,19 -7,47 -15,63 -8,17 -13,47 -10,72 2,23 1,42 -3,42 -12,0 -35,-30 -29,-40 3,-5 0,-7 -8,-4 -8,3 -39,-19 -72,-51 -32,-30 -64,-55 -70,-55 -6,0 -30,-9 -54,-21 -36,-17 -45,-18 -59,-7 -36,29 -53,50 -55,67 -1,20 29,87 43,96 6,4 8,11 4,16 -3,5 -2,8 3,7 4,-2 8,1 8,6 0,6 -13,11 -30,13 -16,1 -41,5 -53,8 -20,5 -22,8 -11,21 10,13 10,17 -2,24 -29,18 -63,46 -78,63 -9,9 -21,17 -28,17 -17,0 -17,-20 0,-20 6,0 4,-5 -6,-11 -18,-11 -34,-9 -153,13 -58,10 -62,10 -83,-11 -12,-12 -24,-33 -25,-46 -3,-32 -24,-55 -63,-72 -40,-16 -43,-26 -7,-17 24,6 26,5 19,-17 -5,-13 -8,-30 -8,-36 0,-7 -3,-13 -7,-13 -4,0 -27,-16 -51,-35 -24,-19 -48,-35 -52,-35 -10,0 -37,-26 -37,-34 0,-3 4,-6 10,-6 18,0 60,-43 60,-62 0,-25 -37,-102 -58,-121 -38,-34 -155,-89 -212,-99 l -60,-10 5,-44 c 3,-26 1,-44 -5,-44 -5,0 -10,-11 -10,-24 0,-14 -4,-27 -8,-30 -4,-2 -9,-19 -10,-38 -2,-23 -12,-40 -32,-56 -17,-13 -28,-28 -25,-33 4,-5 2,-9 -4,-9 -5,0 -11,6 -14,13 -3,8 -12,5 -30,-12 -27,-25 -47,-21 -47,9 0,10 -8,25 -17,32 -10,7 -19,20 -19,28 -1,8 -5,23 -9,32 -6,15 -3,16 22,9 57,-17 58,-17 58,9 0,22 -4,25 -31,24 -26,-1 -31,1 -27,17 3,11 9,22 14,25 5,3 9,16 9,30 0,13 4,24 8,24 13,0 43,58 33,64 -5,3 -44,8 -87,11 -46,3 -84,11 -93,19 -9,8 -35,20 -58,28 -24,7 -43,19 -43,25 0,18 -34,50 -62,58 -12,4 -38,13 -56,21 -25,12 -40,13 -70,5 -20,-6 -40,-11 -43,-11 -8,0 3,52 20,93 15,37 7,47 -35,47 -19,0 -34,3 -34,6 0,9 91,124 98,124 4,0 34,20 66,45 33,24 72,47 87,50 15,4 30,12 33,20 3,8 21,17 40,21 20,3 36,10 36,15 0,5 6,8 13,7 6,-2 11,3 9,11 -3,13 6,13 53,-4 14,-5 16,-4 6,3 -10,7 -5,12 21,21 18,6 40,20 48,31 8,11 22,20 30,20 9,0 21,5 27,11 7,7 33,13 60,15 54,5 159,53 197,91 22,22 87,63 100,63 3,0 -22,-26 -55,-57 -32,-32 -59,-62 -59,-68 0,-6 -20,-17 -45,-24 -54,-16 -55,-37 -1,-33 34,3 37,2 31,-17 -8,-28 17,-28 68,-1 20,11 44,20 52,20 8,0 22,9 32,20 21,21 65,18 57,-5 -8,-20 68,-29 110,-14 29,10 33,16 25,30 -5,10 -15,16 -23,13 -8,-3 -16,4 -19,18 -6,21 -43,50 -90,70 -13,6 -16,14 -11,35 4,16 9,30 11,33 6,7 22,-23 17,-32 -5,-7 1,-9 39,-12 6,-1 12,8 13,19 3,60 3,59 23,34 18,-22 20,-22 26,-6 4,9 15,17 24,17 9,0 29,7 45,15 15,8 34,15 40,15 7,0 23,11 36,25 18,19 20,27 12,38 -14,17 9,41 54,57 16,6 34,22 41,35 10,22 9,25 -7,25 -35,0 -31,19 6,29 28,8 43,7 65,-4 16,-9 40,-12 57,-9 37,7 53,-13 18,-22 -30,-7 -56,-34 -35,-34 9,-1 5,-8 -10,-21 -13,-11 -20,-23 -16,-27 4,-4 10,-1 12,6 3,6 11,12 19,12 13,0 18,12 15,33 0,4 4,7 9,7 16,0 90,51 90,62 0,6 -8,7 -17,3 -37,-15 -53,-17 -53,-6 0,6 11,11 25,11 17,0 29,7 35,23 5,12 9,16 9,10 1,-7 8,-13 16,-13 9,0 12,-6 8,-17 -4,-11 -3,-14 5,-9 7,4 12,3 12,-1 0,-5 12,-16 28,-25 l 27,-17 -28,-1 c -16,0 -26,4 -22,9 9,16 -15,24 -31,11 -10,-10 -11,-16 -3,-26 6,-7 7,-18 3,-25 -5,-9 2,-10 28,-5 27,5 35,3 35,-9 0,-11 -11,-15 -42,-15 -67,0 -140,-48 -120,-80 15,-24 145,7 145,35 0,7 6,18 14,24 11,9 14,8 12,-6 -1,-14 8,-19 37,-21 27,-2 37,1 37,12 0,8 -10,16 -22,18 -12,2 -24,10 -26,18 -4,13 -3,13 10,2 13,-10 17,-10 21,0 4,10 6,10 6,1 1,-7 10,-13 21,-13 15,0 19,-5 16,-22 -3,-13 -5,-31 -5,-40 -1,-10 -9,-18 -18,-18 -9,0 -24,-6 -32,-13 -9,-8 -38,-22 -66,-32 -62,-22 -73,-31 -57,-47 17,-17 15,-27 -5,-27 -10,0 -35,-4 -55,-9 -23,-6 -56,-6 -89,0 -43,8 -58,6 -88,-9 -53,-27 -75,-51 -62,-67 17,-20 58,-25 104,-12 23,7 58,11 77,10 19,-1 45,-2 58,-3 13,0 20,-5 17,-11 -3,-5 1,-10 10,-10 10,0 15,-7 13,-17 -2,-10 7,-29 19,-43 13,-14 23,-32 23,-42 0,-24 15,-30 44,-17 21,10 29,8 52,-10 15,-11 37,-21 50,-21 13,0 46,-9 74,-20 27,-11 50,-18 50,-15 0,3 9,-4 21,-16 24,-24 50,-11 42,21 -6,21 -33,28 -33,9 0,-6 -6,-9 -12,-6 -7,2 -12,13 -10,23 1,11 -8,29 -23,42 -14,12 -25,26 -25,31 0,5 -9,11 -20,14 -11,3 -20,13 -20,23 0,16 1,16 20,-1 11,-10 23,-15 27,-12 3,4 13,-2 21,-14 12,-17 16,-18 30,-7 9,7 13,8 9,2 -4,-7 3,-14 17,-18 13,-3 26,-15 29,-26 6,-22 31,-27 43,-9 3,6 0,15 -7,20 -10,6 -11,9 -1,9 6,0 12,9 12,20 0,12 5,17 14,14 7,-3 21,2 30,12 15,14 15,19 2,38 -10,16 -11,27 -4,40 11,20 -3,36 -33,36 -17,0 -29,18 -35,53 -2,10 2,17 11,17 18,0 19,11 3,29 -11,11 -10,12 0,7 7,-4 19,-3 25,3 16,13 60,-24 65,-54 4,-23 22,-48 30,-41 2,3 13,1 23,-4 23,-13 49,-2 59,24 7,18 14,21 44,18 23,-3 36,0 36,8 0,15 25,40 42,40 7,0 24,9 37,19 l 23,18 -28,20 c -16,11 -35,18 -43,15 -8,-3 -11,0 -7,7 4,6 1,11 -7,11 -7,0 -24,11 -37,26 -17,17 -31,23 -47,19 -12,-3 -25,0 -29,6 -3,6 -22,17 -40,25 -19,8 -34,18 -34,22 0,13 47,35 59,28 19,-12 33,4 19,22 -10,12 -10,16 0,19 33,12 -9,67 -63,82 -21,6 -42,8 -47,5 -4,-3 -8,2 -8,11 0,9 -4,14 -9,11 -5,-3 -11,3 -14,14 -4,16 -14,20 -49,20 -24,0 -50,-6 -58,-12 -12,-11 -12,-10 -1,5 10,12 10,17 2,17 -7,0 -9,5 -6,10 3,6 -1,10 -9,10 -9,0 -16,7 -16,15 0,8 -10,17 -22,19 -13,3 -32,7 -43,9 -14,3 -12,5 8,6 15,1 27,7 27,14 0,29 -35,44 -115,50 -65,5 -83,3 -97,-10 -17,-15 -18,-15 -18,0 0,21 -49,22 -140,2 -76,-17 -95,-18 -60,-3 l 25,10 -25,10 c -68,26 -260,-33 -342,-106 -10,-9 -21,-16 -25,-16 -9,-1 -47,-50 -41,-54 1,-2 28,-8 58,-13 l 55,-11 -59,2 c -67,1 -79,-11 -45,-43 15,-14 30,-19 42,-15 13,4 17,2 13,-5 -8,-12 1,-14 59,-13 22,1 33,-1 25,-5 -24,-10 -40,-30 -43,-55 -2,-13 -10,-23 -18,-23 -8,0 -30,-13 -50,-28 -37,-28 -55,-35 -44,-17 3,6 0,10 -8,10 -17,0 -53,-38 -43,-47 3,-4 -8,-13 -26,-20 -25,-11 -33,-11 -40,-1 -13,21 -4,42 24,56 58,28 38,94 -23,73 -28,-9 -30,-9 -24,9 5,16 2,20 -14,20 -23,0 -30,35 -10,42 9,3 9,10 0,27 -9,17 -10,26 -1,36 15,18 3,55 -18,56 -9,0 2,8 26,18 24,9 47,22 50,28 4,6 32,13 62,15 68,7 221,75 199,89 -8,5 -32,9 -54,9 -22,0 -58,3 -80,6 -48,6 -121,-8 -118,-24 2,-6 -4,-9 -13,-5 -8,3 -25,-3 -37,-14 -12,-11 -30,-23 -41,-27 -12,-4 -17,-13 -13,-25 6,-23 -23,-52 -70,-71 -18,-7 -33,-15 -33,-19 0,-4 -9,-7 -21,-8 -28,-2 -69,-30 -69,-47 0,-7 -11,-19 -25,-26 -17,-9 -25,-21 -23,-34 2,-16 -3,-22 -25,-24 -17,-2 -36,3 -47,13 -15,13 -22,14 -46,3 -16,-7 -33,-18 -37,-25 -4,-7 -26,-16 -47,-19 -43,-7 -55,-30 -18,-36 12,-2 23,-9 26,-17 3,-9 -2,-11 -17,-6 -15,4 -27,-1 -43,-17 -21,-22 -32,-24 -136,-26 -92,-1 -114,1 -119,14 -3,9 -12,12 -24,9 -27,-9 -48,6 -23,16 18,7 18,7 0,14 -11,5 -21,3 -26,-5 -6,-9 -9,-7 -12,10 -1,13 -9,25 -17,28 -8,3 -11,0 -8,-5 3,-5 -7,-8 -24,-5 l -30,4 27,14 c 19,10 31,11 38,4 13,-13 29,-13 21,0 -3,5 0,7 9,4 8,-3 17,-11 19,-18 3,-8 28,-13 67,-14 35,-1 69,-7 77,-13 11,-9 19,-7 36,10 13,11 29,21 35,21 14,0 15,6 3,29 -7,13 -5,17 10,18 10,1 19,-5 19,-13 0,-8 3,-14 6,-14 13,0 64,42 64,53 0,11 -42,34 -92,50 -24,8 -23,24 2,37 11,6 20,17 20,25 0,34 44,81 96,104 30,13 54,27 54,31 0,11 -27,20 -60,20 -35,0 -90,-21 -72,-27 6,-3 12,-9 12,-14 0,-6 -8,-6 -19,1 -39,20 -81,12 -113,-22 -17,-18 -34,-43 -39,-55 -5,-13 -13,-23 -18,-23 -11,0 -9,19 3,38 5,8 1,21 -10,33 -21,23 -64,26 -64,4 0,-19 -14,-19 -67,1 -34,13 -48,14 -75,5 -26,-9 -30,-9 -20,1 17,17 15,28 -6,28 -10,0 -25,11 -32,25 -16,30 -38,38 -110,41 -30,1 -98,5 -150,7 -52,3 -108,3 -123,0 z m 1928,-88 c -16,-9 -38,-30 -49,-48 l -18,-32 -10,25 c -5,13 -5,26 -1,27 5,2 24,12 43,23 19,10 42,19 50,19 8,0 2,-6 -15,-14 z m 278,-16 c 5,-19 11,-21 49,-16 37,5 39,5 18,-5 -14,-5 -45,-11 -70,-12 -44,-2 -45,-1 -27,17 10,10 15,22 12,27 -4,6 -2,10 3,10 5,0 12,-10 15,-21 z m -370,-56 c -9,-3 -10,-10 -3,-24 11,-20 -3,-28 -15,-9 -9,15 2,40 17,39 10,0 10,-2 1,-6 z m 592,-13 c -3,-5 -14,-10 -23,-9 -14,0 -13,2 3,9 27,11 27,11 20,0 z m 145,-80 c -8,-5 -24,-9 -35,-9 -16,1 -16,2 5,9 35,11 48,11 30,0 z m 104,-42 c -5,-8 -2,-9 11,-4 11,4 22,2 26,-6 6,-10 -9,-16 -58,-25 -78,-14 -95,-11 -28,6 25,6 44,15 44,19 -2,12 1,22 7,22 3,0 2,-5 -2,-12 z m -997,-4 c -3,-3 -12,-4 -19,-1 -8,3 -5,6 6,6 11,1 17,-2 13,-5 z m 953,-8 c 0,-2 -9,-6 -20,-9 -11,-3 -18,-1 -14,4 5,9 34,13 34,5 z m -3373,-12 c -3,-3 -12,-4 -19,-1 -8,3 -5,6 6,6 11,1 17,-2 13,-5 z m 2603,-4 c 0,-5 -10,-10 -22,-10 -19,0 -20,2 -8,10 19,13 30,13 30,0 z m 148,3 c -10,-2 -26,-2 -35,0 -10,3 -2,5 17,5 19,0 27,-2 18,-5 z m -2828,-13 c -8,-5 -22,-9 -30,-9 -10,0 -8,3 5,9 27,12 43,12 25,0 z m 2180,0 c 0,-5 -4,-10 -10,-10 -5,0 -10,5 -10,10 0,6 5,10 10,10 6,0 10,-4 10,-10 z m -170,-22 c 0,-4 -11,-15 -25,-24 -31,-20 -33,-38 -4,-31 12,3 18,2 13,-2 -11,-9 -87,-36 -127,-45 -17,-4 -31,-16 -37,-31 -7,-17 -14,-23 -26,-18 -16,6 -16,7 1,19 10,8 14,18 9,26 -4,7 -4,10 1,6 10,-9 47,10 40,21 -2,5 16,14 41,20 25,6 42,16 39,21 -4,6 -11,7 -17,4 -6,-4 -8,1 -6,12 2,13 11,18 25,16 12,-2 24,1 27,7 7,11 46,11 46,-1 z m -2230,-13 c -46,-18 -72,-18 -40,-1 14,8 36,14 50,14 22,0 20,-1 -10,-13 z m 3750,7 c 0,-4 -16,-6 -35,-4 -19,2 -35,6 -35,8 0,2 16,4 35,4 19,0 35,-4 35,-8 z m -1316,-34 c -6,-21 -25,-41 -31,-34 -5,5 22,56 30,56 5,0 5,-10 1,-22 z m 781,2 c -3,-5 -11,-10 -16,-10 -6,0 -7,5 -4,10 3,6 11,10 16,10 6,0 7,-4 4,-10 z m -305,-10 c 0,-5 -5,-10 -11,-10 -5,0 -7,5 -4,10 3,6 8,10 11,10 2,0 4,-4 4,-10 z m 367,4 c -3,-3 -12,-4 -19,-1 -8,3 -5,6 6,6 11,1 17,-2 13,-5 z m -692,-63 c -3,-6 -11,-11 -17,-11 -6,0 -6,6 2,15 14,17 26,13 15,-4 z m -625,-5 c 0,-2 -7,-6 -15,-10 -8,-3 -15,-1 -15,4 0,6 7,10 15,10 8,0 15,-2 15,-4 z m 1338,-3 c -10,-2 -26,-2 -35,0 -10,3 -2,5 17,5 19,0 27,-2 18,-5 z m -1978,-49 c 0,-2 -9,-4 -21,-4 -11,0 -18,4 -14,10 5,8 35,3 35,-6 z m 697,-10 c -3,-3 -12,-4 -19,-1 -8,3 -5,6 6,6 11,1 17,-2 13,-5 z m -1392,-14 c -11,-4 -35,-14 -54,-21 -33,-12 -33,-13 -10,-22 13,-5 47,-6 74,-2 l 50,6 -32,-20 c -18,-11 -48,-20 -71,-19 -48,0 -84,-10 -77,-23 5,-8 -16,-14 -38,-10 -4,1 -24,-6 -44,-14 -20,-8 -38,-13 -41,-10 -8,8 69,37 84,31 7,-3 16,0 20,6 12,19 -76,0 -108,-24 -24,-16 -34,-18 -51,-10 -18,9 -19,11 -4,11 9,1 17,6 17,11 0,6 9,10 19,10 11,0 26,7 35,15 8,8 23,14 33,13 10,0 26,0 37,0 37,4 -4,32 -43,30 l -36,-1 33,-4 c 17,-2 32,-8 32,-14 0,-5 -1,-9 -2,-9 -2,1 -28,7 -58,14 l -55,12 80,13 c 44,7 109,19 145,26 76,16 93,17 65,5 z m 2785,1 c 0,-5 12,-12 26,-15 35,-9 20,-22 -33,-29 -36,-4 -41,-3 -35,12 12,31 42,54 42,32 z m 514,-10 c 4,-5 -3,-7 -14,-4 -23,6 -26,13 -6,13 8,0 17,-4 20,-9 z m -5657,-17 c -3,-3 -12,-4 -19,-1 -8,3 -5,6 6,6 11,1 17,-2 13,-5 z m 4280,-36 c 0,-18 -2,-27 -4,-20 -3,6 -14,12 -25,12 -12,0 -18,3 -15,7 4,3 2,12 -4,20 -9,10 -5,13 18,13 27,0 30,-3 30,-32 z m -242,-34 c 20,-15 20,-16 -4,-12 -14,2 -26,9 -29,16 -5,16 9,15 33,-4 z m -4250,-64 c -3,-5 -12,-10 -18,-10 -7,0 -6,4 3,10 19,12 23,12 15,0 z m 5015,-11 c 0,-5 -7,-9 -15,-9 -9,0 -12,6 -9,15 6,15 24,11 24,-6 z m 125,-79 c -3,-5 -10,-10 -16,-10 -5,0 -9,5 -9,10 0,6 7,10 16,10 8,0 12,-4 9,-10 z m -2592,-119 c 17,-15 68,-9 132,13 11,4 -2,-5 -30,-20 -27,-15 -72,-31 -100,-35 -27,-5 -55,-15 -60,-23 -13,-17 -163,-31 -185,-16 -13,9 -13,10 0,11 8,1 23,0 33,-1 10,-1 30,6 45,16 15,10 43,20 62,24 31,5 35,9 38,37 3,30 5,32 25,20 12,-7 30,-18 40,-26 z m 2904,-37 c -3,-3 -12,-4 -19,-1 -8,3 -5,6 6,6 11,1 17,-2 13,-5 z m -5157,-40 c 0,-2 -7,-4 -15,-4 -8,0 -15,4 -15,10 0,5 7,7 15,4 8,-4 15,-8 15,-10 z m -83,-10 c -3,-3 -12,-4 -19,-1 -8,3 -5,6 6,6 11,1 17,-2 13,-5 z m -42,-14 c -9,-14 -45,-32 -45,-23 0,7 24,22 48,32 2,0 0,-3 -3,-9 z m -322,-97 c -7,-2 -21,-2 -30,0 -10,3 -4,5 12,5 17,0 24,-2 18,-5 z m 57,3 c 0,-2 -9,-6 -20,-9 -11,-3 -18,-1 -14,4 5,9 34,13 34,5 z m 1018,-81 c -3,-3 -9,2 -12,12 -6,14 -5,15 5,6 7,-7 10,-15 7,-18 z m 17,-25 c 3,-5 2,-10 -4,-10 -5,0 -13,5 -16,10 -3,6 -2,10 4,10 5,0 13,-4 16,-10 z m -50,-20 c -4,-6 -2,-17 4,-24 8,-9 7,-13 -4,-13 -8,0 -12,4 -9,8 2,4 -1,11 -7,15 -8,4 -7,9 2,15 18,11 21,11 14,-1 z m -1285,-10 c 0,-5 -2,-10 -4,-10 -3,0 -8,5 -11,10 -3,6 -1,10 4,10 6,0 11,-4 11,-10 z m 1370,-45 c -14,-17 -46,-20 -54,-6 -4,5 2,7 13,4 10,-3 22,0 25,6 4,6 12,11 18,11 7,0 6,-6 -2,-15 z m -14,-37 c 4,-6 3,-8 -4,-4 -6,3 -15,-1 -20,-10 -6,-11 -11,-13 -16,-5 -4,6 -2,11 4,11 6,0 8,5 5,10 -3,6 1,10 9,10 8,0 18,-5 22,-12 z m -66,-32 c 0,-2 -8,-10 -17,-17 -16,-13 -17,-12 -4,4 13,16 21,21 21,13 z m 40,-41 c 0,-8 -2,-15 -4,-15 -2,0 -6,7 -10,15 -3,8 -1,15 4,15 6,0 10,-7 10,-15 z m 67,9 c -3,-3 -12,-4 -19,-1 -8,3 -5,6 6,6 11,1 17,-2 13,-5 z m -119,-77 c -6,-12 -12,-23 -13,-24 -1,-2 -2,10 -2,26 0,20 4,28 13,24 11,-4 11,-10 2,-26 z m 2098,-118 c 8,-14 -16,-159 -27,-159 -5,0 -9,3 -9,8 0,4 -4,13 -9,21 -7,11 -13,12 -24,3 -10,-9 -14,-9 -14,1 0,6 -3,22 -7,35 -6,17 -3,24 16,31 l 23,10 -22,0 c -30,1 -29,7 5,36 29,26 57,32 68,14 z m 2504,7 c 0,-2 -15,-9 -32,-15 -30,-10 -31,-9 -14,4 18,14 46,20 46,11 z m -4580,-36 c 0,-5 -2,-10 -4,-10 -3,0 -8,5 -11,10 -3,6 -1,10 4,10 6,0 11,-4 11,-10 z m 2050,-175 c 0,-2 -13,-18 -30,-35 -19,-19 -30,-25 -30,-16 0,8 12,24 26,35 27,21 34,25 34,16 z m -1944,-121 c 0,-11 11,-21 32,-28 26,-9 30,-14 20,-24 -9,-9 -9,-12 0,-12 7,0 12,-10 12,-22 0,-17 -3,-19 -9,-9 -5,8 -14,10 -21,6 -8,-5 -11,-3 -8,6 3,8 -7,26 -21,40 -28,27 -37,59 -16,59 7,0 12,-7 11,-16 z m 2477,-90 c 9,-3 12,-14 10,-29 -6,-27 25,-49 54,-38 15,6 16,4 6,-9 -7,-8 -10,-18 -7,-21 4,-3 3,-14 -1,-24 -10,-23 -12,-29 -14,-48 0,-8 -6,-15 -12,-15 -6,0 -9,7 -5,15 4,12 -3,13 -42,8 -26,-3 -55,-10 -64,-15 -22,-11 -65,0 -72,18 -3,8 -13,14 -23,14 -12,0 -7,7 16,21 37,22 35,35 -4,25 -16,-4 -23,-11 -19,-18 4,-7 3,-8 -4,-4 -6,4 -26,-1 -44,-10 -18,-10 -46,-21 -63,-25 -16,-4 -41,-11 -55,-15 -25,-6 -25,-6 -5,10 19,17 18,17 -22,13 -24,-3 -43,-4 -43,-2 0,9 111,64 153,75 26,7 50,17 53,21 3,5 10,9 17,9 6,0 2,-7 -9,-15 -10,-8 -14,-15 -7,-15 21,0 63,19 63,29 0,6 -6,8 -14,5 -8,-3 -17,0 -22,7 -4,7 -3,10 2,6 5,-3 34,3 64,13 57,20 88,24 113,14 z m -2448,-35 c -4,-5 -21,-8 -38,-8 -21,1 -25,3 -12,6 11,3 24,9 29,14 11,10 28,1 21,-12 z m 3840,-29 c 8,-13 -5,-13 -25,0 -13,8 -13,10 2,10 9,0 20,-4 23,-10 z m 105,-136 c 0,-2 -9,-4 -21,-4 -11,0 -18,4 -14,10 5,8 35,3 35,-6 z m -1315,-19 c 6,-2 -11,-4 -37,-4 -27,-1 -48,3 -48,7 0,7 62,5 85,-3 z m -185,-11 c 0,-9 -63,-68 -76,-72 -33,-9 -44,-17 -77,-56 -41,-49 -57,-84 -57,-123 0,-17 -15,-40 -44,-69 -48,-49 -75,-56 -77,-21 -3,58 41,141 126,235 42,47 51,72 15,40 -8,-7 -4,0 10,15 15,17 31,26 42,24 9,-3 25,1 35,8 26,18 103,32 103,19 z m 170,-30 c 33,-14 36,-14 52,5 25,31 54,27 67,-10 24,-69 -20,-108 -56,-49 -22,38 -42,40 -35,4 4,-21 -2,-33 -26,-54 -17,-14 -34,-38 -37,-53 -6,-22 -42,-57 -59,-57 -3,0 -4,19 -3,43 2,37 0,42 -18,39 -11,-2 -27,-10 -36,-18 -8,-8 -19,-14 -24,-14 -4,0 13,20 39,45 26,25 44,50 41,55 -3,5 -1,11 5,15 17,11 11,25 -15,37 -14,6 -25,18 -25,26 0,11 9,13 48,7 26,-4 63,-13 82,-21 z m 24,14 c -3,-4 -9,-8 -15,-8 -5,0 -9,4 -9,8 0,5 7,9 15,9 8,0 12,-4 9,-9 z m 326,-155 c -1,-33 -61,-56 -125,-48 -28,4 -68,2 -88,-3 -48,-13 -48,2 1,25 24,12 60,18 105,18 37,0 67,3 67,8 0,4 9,7 20,7 11,0 20,-3 20,-7 z m -230,-98 c 0,-7 -79,-46 -150,-72 -97,-37 -138,-45 -160,-33 -26,14 -26,30 0,30 11,0 20,-6 20,-12 0,-10 2,-10 8,-1 4,7 34,26 67,42 48,25 67,29 105,25 32,-4 41,-3 31,4 -11,8 -7,11 20,15 19,2 40,5 47,5 6,1 12,0 12,-3 z m -255,-55 c -3,-5 -15,-10 -26,-10 -10,0 -19,5 -19,10 0,6 12,10 26,10 14,0 23,-4 19,-10 z m 280,-361 c 11,-17 -1,-21 -15,-4 -8,9 -8,15 -2,15 6,0 14,-5 17,-11 z m 0,-169 c 3,-6 -1,-7 -9,-4 -18,7 -21,14 -7,14 6,0 13,-4 16,-10 z M 6465,9630 c 3,-5 -1,-10 -10,-10 -9,0 -13,5 -10,10 3,6 8,10 10,10 2,0 7,-4 10,-10 z m 113,-1624 c 10,-23 9,-24 -24,-23 -29,2 -32,4 -18,14 16,12 16,13 1,19 -10,3 -17,15 -17,25 0,18 2,18 23,4 13,-8 29,-26 35,-39 z m 852,5405 c -66,-6 -114,-17 -226,-52 -17,-5 -42,-9 -56,-9 -14,0 -39,-5 -57,-11 -38,-14 -43,-38 -5,-31 16,3 29,-1 34,-9 7,-11 13,-10 29,5 14,13 21,15 21,6 0,-9 9,-11 32,-6 30,6 31,5 13,-8 -19,-15 -19,-15 7,-16 15,0 38,4 52,10 14,5 26,7 26,5 0,-3 -12,-10 -27,-16 -24,-9 -26,-12 -11,-20 9,-5 36,-11 60,-13 26,-2 42,-7 40,-15 -6,-28 50,-32 172,-12 67,11 162,22 211,25 73,4 101,10 143,32 62,32 56,49 -14,45 l -47,-2 16,24 c 15,24 13,37 -5,37 -5,0 -6,-5 -2,-12 4,-7 3,-8 -5,-4 -6,4 -28,2 -49,-4 -72,-22 -68,-20 -52,-30 12,-8 10,-10 -7,-10 -27,0 -31,-17 -5,-23 9,-3 -9,-5 -41,-6 -32,0 -56,3 -53,8 12,19 -33,41 -95,48 -63,6 -64,7 -34,19 17,7 26,14 20,15 -5,1 3,4 19,8 17,3 30,11 30,16 1,13 -38,14 -134,6 z m -21,-92 46,-8 -47,3 c -25,2 -52,0 -60,-5 -10,-7 -8,-9 7,-10 11,0 15,-3 9,-5 -6,-3 -22,0 -35,5 -17,7 -19,10 -6,10 9,1 17,6 17,12 0,7 -12,8 -32,4 -33,-6 -33,-6 -8,8 17,9 31,11 44,4 10,-5 39,-13 65,-18 z m 36,21 c -3,-5 -15,-10 -26,-10 -11,0 -17,5 -14,10 3,6 15,10 26,10 11,0 17,-4 14,-10 z m -10,-90 c 4,-6 -7,-10 -27,-9 -31,1 -32,1 -8,9 14,4 26,8 27,9 1,1 5,-3 8,-9 z m 418,236 c -78,-12 -106,-26 -52,-26 19,0 39,-4 45,-8 7,-4 -19,-7 -57,-7 -51,0 -72,-4 -79,-15 -14,-23 16,-33 82,-26 61,6 111,29 86,39 -7,3 2,3 21,0 24,-4 32,-3 27,5 -5,8 1,12 16,12 13,0 30,5 38,10 13,9 13,11 0,20 -18,11 -32,11 -127,-4 z m 417,45 c -25,-3 -45,-11 -45,-18 0,-7 -9,-19 -20,-27 -11,-8 -18,-17 -15,-20 3,-3 39,-7 79,-10 40,-2 78,-9 84,-15 6,-6 28,-11 48,-11 32,0 40,5 52,30 15,29 15,30 -16,44 -18,8 -43,16 -57,19 -14,3 -34,7 -45,10 -11,2 -40,2 -65,-2 z m 3390,228 c -74,-4 -196,-10 -270,-13 -74,-3 -148,-9 -165,-13 -16,-3 -41,-5 -55,-4 l -25,3 25,-21 c 20,-16 22,-20 8,-21 -9,0 -20,5 -24,11 -3,6 -15,9 -25,6 -11,-3 -26,1 -33,9 -17,16 -30,19 -21,4 4,-6 -9,-10 -30,-10 -30,0 -36,-3 -31,-16 5,-13 2,-15 -16,-9 -56,16 -92,16 -105,-1 -12,-17 -13,-17 -13,1 0,17 -8,18 -113,12 -62,-4 -142,-9 -177,-12 -36,-3 -59,-3 -52,1 24,12 11,24 -26,24 -21,0 -43,5 -50,12 -8,8 -110,12 -354,13 -349,2 -462,-4 -533,-28 -28,-10 -51,-11 -82,-5 -28,6 -61,6 -96,-2 -30,-6 -90,-13 -133,-15 -115,-6 -184,-16 -184,-26 0,-5 9,-9 20,-9 11,0 20,-6 20,-14 0,-7 15,-18 33,-24 22,-7 26,-10 12,-11 -12,-1 -27,-7 -34,-13 -10,-11 -12,-10 -9,1 2,8 -7,15 -21,17 -14,3 -33,13 -43,24 -14,15 -32,20 -68,20 -27,0 -52,-4 -55,-10 -3,-5 -22,-10 -41,-10 -19,0 -34,-4 -34,-10 0,-5 -10,-10 -22,-11 -13,0 -43,-8 -68,-18 -35,-15 -44,-23 -44,-42 -1,-19 6,-25 29,-28 22,-2 25,-5 13,-10 -16,-6 -16,-8 2,-31 18,-24 22,-25 152,-26 135,-1 204,-14 164,-30 -13,-5 -21,-3 -24,4 -4,12 -78,17 -105,6 -9,-3 -13,-13 -9,-26 4,-18 2,-20 -16,-15 -12,3 -47,-1 -77,-8 -30,-7 -56,-10 -59,-8 -8,8 -46,-8 -46,-18 0,-6 5,-7 12,-3 7,5 8,3 4,-5 -6,-9 -12,-8 -26,4 -14,13 -29,15 -63,10 -29,-4 -47,-3 -51,4 -4,6 -18,11 -31,11 -13,0 -26,4 -29,9 -6,10 -98,2 -106,-9 -3,-4 -12,-10 -20,-13 -12,-4 -12,-6 2,-6 17,-1 36,-46 25,-57 -2,-3 -36,-7 -73,-9 l -69,-5 29,26 c 26,24 26,28 12,43 -13,13 -20,13 -36,3 -24,-15 -33,-15 -25,-2 9,15 -60,12 -121,-6 -34,-10 -54,-21 -54,-30 0,-8 -5,-12 -10,-9 -6,4 -8,10 -5,15 8,13 -42,40 -61,33 -24,-9 -57,-43 -42,-43 6,0 8,-3 5,-7 -13,-12 29,-32 69,-33 34,0 42,-3 40,-17 -1,-16 8,-18 73,-15 55,2 77,7 86,19 8,11 18,14 31,8 13,-5 15,-9 6,-12 -10,-4 -8,-9 5,-19 11,-8 13,-13 6,-14 -18,0 -16,-20 2,-20 8,0 15,4 15,9 0,4 22,6 49,3 44,-4 53,-1 77,23 22,22 24,29 13,37 -11,7 -11,11 -1,15 6,2 12,11 12,19 0,21 86,19 94,-2 4,-9 5,-18 4,-18 -2,-1 -15,-7 -29,-13 -24,-10 -47,-51 -31,-54 31,-6 81,-9 235,-15 128,-5 181,-3 191,5 11,9 16,9 21,0 8,-12 117,-6 175,11 32,9 60,32 60,49 0,31 -138,38 -274,15 -44,-7 -83,-11 -88,-8 -5,3 -29,7 -54,8 -45,3 -89,26 -48,26 12,0 24,3 28,8 4,4 65,8 134,8 70,1 154,2 187,3 33,1 69,2 80,1 20,-1 20,-1 0,-11 -14,-6 -2,-8 40,-4 44,3 54,2 38,-5 -30,-12 -29,-20 3,-20 17,0 28,6 31,20 3,12 14,20 28,20 37,0 85,21 85,37 0,11 -7,14 -26,9 -17,-5 -23,-3 -19,4 3,5 16,10 28,10 12,0 36,7 52,16 17,9 53,18 80,20 70,6 92,14 74,25 -9,6 -3,7 17,3 19,-4 34,-1 38,5 4,6 15,11 25,11 10,0 28,11 40,24 23,24 49,31 160,42 30,2 69,12 87,20 18,9 38,17 46,18 209,38 266,51 255,58 -6,4 5,5 25,1 21,-3 43,-1 50,5 14,10 158,36 165,28 2,-2 -3,-11 -12,-20 -11,-11 -35,-16 -73,-16 -76,-1 -284,-42 -290,-58 -2,-8 10,-12 42,-12 25,0 46,-4 46,-10 0,-19 -47,-33 -140,-41 -146,-12 -303,-36 -333,-52 l -27,-14 26,-11 c 14,-7 33,-12 44,-12 10,0 21,-4 24,-8 2,-4 -20,-7 -50,-6 -30,1 -57,-2 -60,-7 -3,-5 6,-9 20,-9 17,0 24,-4 20,-13 -9,-23 70,-69 128,-75 35,-3 49,-1 44,6 -4,7 3,8 25,2 18,-5 35,-7 40,-4 24,15 170,11 243,-7 79,-19 104,-29 73,-29 -23,0 -11,-27 16,-34 21,-6 21,-7 4,-20 -18,-14 -18,-14 0,-19 14,-4 13,-5 -5,-6 -13,0 -21,-5 -17,-11 3,-5 13,-7 23,-4 11,4 9,-2 -8,-17 l -25,-22 23,6 c 23,5 23,5 6,-14 -16,-17 -16,-22 -4,-29 12,-8 10,-10 -7,-10 -25,0 -31,-15 -10,-24 8,-3 3,-13 -16,-28 -24,-21 -26,-26 -14,-43 11,-14 22,-17 50,-12 20,3 39,2 42,-4 3,-5 -1,-6 -9,-3 -9,3 -16,1 -16,-5 0,-6 9,-11 21,-11 14,0 19,6 17,18 -1,9 2,17 7,17 5,0 9,-6 7,-12 -2,-8 7,-13 20,-13 17,0 24,-6 25,-20 2,-21 -11,-27 -22,-10 -8,13 -122,13 -129,1 -4,-5 0,-12 6,-15 7,-3 0,-4 -15,-1 -16,3 -26,2 -23,-3 3,-5 -3,-21 -14,-34 l -19,-25 32,-18 c 29,-15 38,-15 86,-3 62,15 73,29 35,47 -15,6 -24,15 -20,18 3,4 12,1 18,-5 7,-7 22,-12 34,-12 28,0 29,-32 2,-72 -17,-25 -23,-26 -66,-21 -45,5 -50,3 -74,-26 -15,-17 -29,-31 -33,-31 -11,0 -55,-53 -55,-66 0,-8 8,-14 18,-15 13,0 12,-2 -5,-9 -25,-10 -48,-46 -34,-54 5,-3 7,-16 3,-28 -4,-17 -2,-20 13,-15 13,5 16,3 11,-8 -3,-8 -2,-15 3,-15 5,0 3,-17 -4,-37 -11,-33 -11,-39 2,-47 11,-6 12,-10 4,-15 -15,-9 3,-61 20,-61 7,0 9,-11 6,-30 -4,-16 -3,-30 2,-30 4,0 13,-18 20,-39 6,-21 18,-42 26,-45 8,-3 15,-15 15,-26 0,-22 12,-25 38,-11 24,12 112,-15 112,-35 0,-8 8,-17 18,-20 9,-3 27,-10 39,-16 28,-14 75,2 88,30 5,12 15,22 22,22 6,0 14,9 18,20 3,10 21,34 39,52 18,18 36,46 40,61 4,17 17,32 32,37 13,5 37,21 52,35 15,14 35,28 45,31 9,3 17,12 17,19 0,8 10,23 21,34 14,13 20,27 16,40 -3,11 -2,19 2,18 13,-4 71,26 65,34 -3,5 16,9 41,9 34,0 44,3 39,13 -6,9 -4,9 7,1 21,-16 69,-26 69,-14 0,5 7,10 15,10 8,0 15,5 15,11 0,5 5,7 10,4 6,-4 16,-3 23,2 7,5 37,17 67,27 33,11 75,35 105,62 28,24 62,46 77,50 16,3 32,13 38,22 8,14 11,15 19,3 6,-10 21,-12 53,-7 144,22 293,55 336,76 23,11 45,20 49,20 5,0 39,13 76,29 l 68,28 -58,7 c -81,9 -153,23 -125,25 18,1 23,6 20,24 -2,18 2,22 26,22 21,0 30,-5 32,-18 1,-11 5,-22 9,-25 9,-10 114,-19 126,-11 6,4 13,26 14,50 2,41 0,44 -34,61 -30,14 -32,16 -8,11 32,-6 66,15 45,28 -10,7 -8,9 5,9 13,0 17,5 12,19 -6,20 16,31 66,31 41,0 66,34 32,43 -13,3 -11,5 7,7 14,1 29,2 34,1 15,-3 90,32 102,48 6,8 18,11 27,8 9,-3 19,-2 22,3 4,6 -1,10 -10,10 -9,0 -13,5 -10,10 4,6 -6,10 -23,10 -29,0 -48,-22 -36,-41 6,-10 -39,-13 -49,-2 -4,3 2,13 13,20 28,20 23,70 -8,91 -29,19 -15,29 32,24 26,-3 33,-8 29,-20 -4,-9 -2,-13 4,-9 7,5 9,0 6,-13 -8,-31 7,-23 18,10 6,17 18,30 26,30 8,0 13,7 11,18 -2,12 -14,17 -41,19 -21,0 -41,4 -45,8 -4,5 3,6 14,3 12,-3 28,-2 35,3 10,6 6,10 -13,18 -14,5 -29,15 -33,21 -5,8 -11,8 -21,-1 -24,-20 -29,0 -5,20 18,16 32,19 64,14 34,-4 39,-3 34,11 -4,11 -1,16 11,17 14,0 14,2 -3,9 -25,10 -11,16 54,23 24,3 47,10 50,15 3,6 23,13 43,17 21,4 35,11 32,16 -3,5 11,9 30,9 19,0 37,4 40,8 3,5 37,14 76,21 101,18 77,32 -64,39 -83,3 -120,1 -130,-7 -17,-14 -60,-5 -51,10 4,5 -1,9 -9,9 -9,0 -15,-5 -13,-12 1,-6 -6,-14 -16,-16 -10,-2 -16,2 -15,9 2,7 -6,15 -17,17 -11,2 -17,1 -12,-4 4,-4 -14,-16 -40,-26 -57,-22 -63,-22 -38,-5 10,8 15,19 11,26 -4,6 0,13 8,16 9,3 23,7 32,10 27,9 13,13 -60,20 -38,4 -86,13 -106,20 -48,17 -361,25 -540,14 z m -393,-74 c 0,-17 0,-17 -23,-8 -16,6 -16,7 2,14 10,4 19,8 20,8 0,1 1,-6 1,-14 z m 963,-5 c -8,-5 -24,-9 -35,-9 -16,1 -16,2 5,9 35,11 48,11 30,0 z m -3023,-16 c -3,-3 -12,-4 -19,-1 -8,3 -5,6 6,6 11,1 17,-2 13,-5 z m 50,-72 c -24,-2 -42,-10 -50,-23 -16,-26 -25,-24 -20,5 5,27 35,36 83,26 20,-4 18,-6 -13,-8 z m 158,8 c 3,-5 -2,-10 -11,-10 -16,0 -16,-1 2,-15 18,-14 17,-14 -8,-4 -22,10 -25,15 -17,26 14,16 26,17 34,3 z m -165,-67 c 0,-9 -3,-12 -7,-7 -5,5 -12,12 -18,16 -6,4 -2,8 8,8 9,0 17,-7 17,-17 z m -20,-17 c 0,-3 -4,-8 -10,-11 -5,-3 -10,-1 -10,4 0,6 5,11 10,11 6,0 10,-2 10,-4 z m -190,-41 c -7,-8 -17,-15 -23,-15 -6,0 -2,7 9,15 25,19 30,19 14,0 z m 973,-62 c -7,-2 -19,-2 -25,0 -7,3 -2,5 12,5 14,0 19,-2 13,-5 z m -150,-10 c -7,-2 -19,-2 -25,0 -7,3 -2,5 12,5 14,0 19,-2 13,-5 z m -1648,-64 c 11,-17 -1,-21 -15,-4 -8,9 -8,15 -2,15 6,0 14,-5 17,-11 z m -158,-15 c -3,-3 -12,-4 -19,-1 -8,3 -5,6 6,6 11,1 17,-2 13,-5 z m 3958,-174 c 3,-5 1,-10 -4,-10 -6,0 -11,5 -11,10 0,6 2,10 4,10 3,0 8,-4 11,-10 z m -22,-30 c -29,-12 -30,-37 -2,-45 27,-9 20,-16 -9,-8 -13,3 -22,13 -22,24 0,10 -8,23 -17,28 -14,8 -8,10 27,10 37,0 41,-2 23,-9 z m 90,3 c -7,-2 -21,-2 -30,0 -10,3 -4,5 12,5 17,0 24,-2 18,-5 z m 4,-19 c -3,-3 -12,-4 -19,-1 -8,3 -5,6 6,6 11,1 17,-2 13,-5 z m -1882,-632 c -3,-3 -11,0 -18,7 -9,10 -8,11 6,5 10,-3 15,-9 12,-12 z M 7577.9996,8085.9999 C 7560.9998,8080 7549.9999,8069.0001 7549.9999,8058.0001 7549.9999,8048 7544,8040 7536,8040 c -7.0002,0 -25.0003,-9.0003 -39.0002,-20.0002 -15.0002,-11.9998 -40,-19.9998 -61,-19.9998 -22.9997,0 -38.9997,-5.0001 -42.0002,-15.0002 -3.9992,-10.0001 -13.9998,-13 -27.9997,-8.9998 -40.9998,10.0001 -96,-72 -86.9997,-128 0,-5.0001 -3.9993,-8 -10.0001,-8 -13.0001,0 -39.0002,-25.0003 -39.0002,-37.0001 0,-5 -13.0001,-16.9998 -29.9999,-26.0001 -21.0001,-13 -26.9999,-22.9997 -23.0002,-34.9999 3.9993,-8.9998 -13,3.9993 -37.9999,29.9999 -37.9998,40 -101,78.0003 -130.0001,78.0003 -5,0 -8.9998,-13 -8.9998,-28.0002 0,-19.9998 7.0002,-32.9998 24.9998,-42.0001 13.0001,-6.9997 27,-21.9999 31.0002,-32 2.9995,-11 10.0001,-14.9997 16.9998,-11 8,3.9993 7.0002,0.9998 -0.9998,-8.9998 -14.9997,-18.9999 -6.9997,-61.0001 15.0002,-80 8,-7.0002 19.9997,-24 26.0001,-37.9999 13.9999,-33.0003 18.9999,-207.0002 6.9997,-215.0002 -6.9997,-3.9993 -5.9999,-13 0.9998,-26.0001 11,-21.9999 -5,-88.9998 -21.9999,-88.9998 -5,0 -8.9998,-5.9999 -8.9998,-13.0001 0,-7.0001 -16,-18.9999 -34.9999,-26.9999 -25.0003,-10.0001 -35.0004,-20.0002 -35.0004,-36.0002 0,-11.9998 -6.9997,-24 -14.9997,-27.9998 -11,-3.9993 -13.9999,-13.0001 -10.0002,-29.0001 5.9999,-21 0.9999,-26.0001 -39.0001,-40.9998 -43.9998,-17.0003 -45.9999,-20.0002 -45.9999,-56 0,-24 -5.0001,-40 -14.9997,-44.0002 -8,-2.9995 -15.0002,-16.9998 -15.0002,-29.9999 0,-15.0002 -8,-29.9999 -20.0002,-36.0002 -11,-5.9999 -17.9997,-14.9997 -14.9997,-21.0001 13,-19.9998 13.9998,-88.9998 1.9996,-88.9998 -7.0002,0 2.9995,-13.0001 21.0001,-29.0001 16.9998,-16 32,-34.0001 32,-40 0,-5.9999 5,-10.9999 10.0001,-10.9999 5.9999,0 9.9996,5 9.9996,12.0002 0,5.9999 1.9997,8.9998 5.0001,5.9999 8,-8 -5.9999,-37.9999 -18.0001,-37.9999 -5.9999,0 -27.9998,-19.0004 -49.9997,-42.0001 -34.9999,-39.0002 -38.0003,-47.0002 -32,-82.9999 2.9995,-22.0004 11.9998,-47.0002 19.9998,-56 17.0003,-18.0002 20.0002,-39.0002 5,-39.0002 -26.0001,0 -5,-31.0002 34.0002,-51 32.9998,-16 50.9999,-34.9999 72,-72.9998 14.9997,-28.0002 37,-64 48.9998,-81.0003 12.0002,-16 36.0002,-64 55.0002,-104.9998 18.0001,-41.0003 40.9998,-87.0002 51.9997,-101.9999 10.0001,-14.0003 18.0001,-33.0003 18.0001,-40 0,-8 8.9999,-23.0002 20.0003,-33.0003 10.9999,-10.0001 19.9997,-26.0001 19.9997,-35.9997 0,-10.0002 3.9993,-20.0003 8.9999,-23.0002 21,-13.0001 82.0001,-117.9999 77,-131.9998 -8.9998,-24 12.0003,-63.0002 61.0001,-112 46.9997,-48 182.9997,-134.0003 240.9998,-153.0003 16.9998,-5.9999 32,-13.9999 32,-18.0001 0,-3.9993 16,-16 35,-26.9999 18.9999,-9.9997 34.9999,-21.9999 34.9999,-27 0,-10.0001 26.0001,-37 34.9999,-37 18.0002,0 51,-45.9999 62.0004,-88 28.9996,-107.9998 50.9999,-341.9999 30.9997,-341.9999 -3.9993,0 -8,-11 -8,-24.9998 0,-14.0004 2.9995,-25.0003 8,-25.0003 13.9999,0 26.0001,-408.9999 12.0002,-443.9998 -6.0003,-16 -3.9993,-32 6.9997,-52.0002 10.0002,-21.0001 13.0001,-43.9998 8,-80 -5,-38.9997 -0.9998,-61.0001 15.0002,-97.9997 11,-26.0001 19.9998,-56 19.9998,-67.0004 0,-9.9996 5,-18.9999 10.0001,-18.9999 5.9999,0 10.9999,-19 10.0001,-41.9997 0,-24 0,-52.0002 0.9998,-63.0002 0.9999,-21 -6.9997,-136.9998 -16,-220.0002 -1.9996,-26.9999 -5,-60.9996 -5,-73.9996 0,-17.0003 -3.9993,-22.0004 -16,-17.0003 -12.9996,5 -14.9997,0.9998 -8.9998,-21.0001 2.9994,-16 13,-34.9999 21,-43.9998 8,-8 13.9999,-21.9998 13.9999,-29 0,-7.0002 12.0002,-32.9998 26.0001,-58.0001 18.0001,-30.9997 24,-51.9998 19.9998,-72 -8.9998,-45.9999 5,-126.9997 26.0001,-149.9999 10.0001,-11 13.9999,-19.9998 7.0002,-19.9998 -7.0002,0 -9.0003,-10.0001 -5.0001,-30.0003 2.9995,-16 8.9998,-45.0001 11.9998,-61.9999 11.0004,-59 43.0004,-77.0001 64,-37.0001 9.0003,15.0002 8,24 -0.9998,35 -5.9999,8 -8,14.0003 -3.9993,14.0003 3.9993,0 1.9996,6.9997 -5.0001,14.9997 -7.0002,8 -9.0003,15.0002 -3.9993,15.0002 3.9993,0 2.9995,5.0001 -3.9993,11.9998 -17.0003,17.0003 -15.0002,31.0001 3.9993,24 12.0002,-5.0001 15.0002,-1.9997 10.0001,9.0003 -2.9994,8.9998 -1.9996,13 3.9993,9.9996 6.0004,-2.9995 10.0001,-12.9996 10.0001,-20.9996 0,-8 5.0001,-14.0003 11,-14.0003 5,0 8,-3.9993 5,-8 -2.9994,-5.0001 -0.9998,-24 3.9993,-43 5.0001,-18.9999 11,-56 14.9997,-82.9999 2.9995,-27.9998 11,-53.0001 17.0003,-56.9998 8.9999,-6.0004 6.9997,-10.0002 -7.0001,-15.0002 -11,-3.9993 -23.0002,-8.9998 -26.0002,-10.0001 -2.9994,-1.9997 -5,9.0003 -2.9994,24 2.9994,26.9999 -8.9999,42.0001 -34.0002,42.0001 -8,0 -9.9996,-5.0001 -4.9995,-11.9998 12.9995,-22.0003 11.9997,-38.0003 -2.9995,-38.0003 -6.9997,0 -17.9997,-8.9999 -24,-19 -11.9998,-24 -12.9996,-42.0001 -0.9998,-21.9999 13,21.0001 50.9999,-3.9993 50.9999,-34.0001 0,-13.9999 -5.0001,-24.9998 -10.9999,-24.9998 -7.0002,0 -8.9999,-10.9999 -5.9999,-29.9999 3.9993,-19.0004 0.9998,-34.0001 -8,-44.0002 -8,-8 -12.0003,-21.9999 -9.0003,-29.9999 7.0002,-18.9999 31.0002,-21.0001 36.0002,-5.0001 2.9995,8.9999 10.0001,8.9999 26.0001,0 11.9998,-7.0001 27,-8.9998 32,-5.9998 5.9999,2.9994 6.9997,-0.9999 3.9993,-9.0003 -2.9994,-8.9999 -1.9996,-16 3.9993,-16 17.9997,0 -2.9994,-53.9999 -26.0001,-65.9997 -12.0002,-6.0003 -18.9999,-14.0003 -13.9999,-18.0001 3.9993,-3.9993 6.9997,-10.9999 6.9997,-13.9999 1.9997,-20.0002 18.0002,-52.0002 26.0002,-52.0002 5,0 8,-2.9995 7.0001,-7.0002 -1.9996,-13.9999 19,-57.9996 35,-72 8.9998,-6.9997 18.9999,-25.9996 21.9999,-41.9996 3.9992,-16 10.9999,-30.0004 16,-30.0004 5,-0.9998 15.0001,-1.9996 21.9998,-2.9995 6.0004,0 15.0002,-18.9999 18.0002,-40.9998 2.9994,-21.9999 7.0001,-34.9999 8,-29.9999 0.9998,5.9999 10.9999,-5 23.0001,-23.0001 16,-26.0002 25.9997,-32 43,-27.9998 13.9999,3.9993 29.9999,-1.9997 45.9999,-17.0003 13,-11.9998 26.9999,-21.0001 31.0001,-18.9999 5.0001,0.9998 8,-2.9995 8,-8.9999 0,-10.9999 -13,-9.0003 -55.0001,5.9999 -13.0001,5.0001 -8.9999,-2.9995 13.9998,-24 24,-23.0002 36.0003,-29 41.0003,-20.0002 11,16 30.9997,1.9996 22.9997,-16.9998 -2.9994,-8 -1.9996,-13.9999 2.9995,-13.0001 17.0003,3.9993 44.0002,-13.0001 44.0002,-26.9999 0,-8.9999 11,-13.9999 29.9999,-13.9999 23.0002,0 28.0003,3.9993 23.0002,16 -2.9995,8.9998 -13.0001,13.9999 -24,10.9999 -10.9999,-2.9995 -18.9999,-0.9998 -18.9999,3.9993 0,19.0004 40,8 50.9999,-12.9996 6.9997,-13 10.9999,-25.0003 10.0001,-28.0002 -0.9998,-2.9995 4.9996,-8.9998 14.9997,-15.0002 10.0001,-4.9996 24,-16 32,-22.9997 17.0003,-16 32,-16 32,0.9998 0,8 2.9995,7.0002 10.0001,-2.9994 5.0001,-8 13.0001,-15.0002 16.9999,-16 3.9993,0 21,-5.9999 36.0002,-11.9998 16,-7.0002 32,-10.0001 37.0001,-7.0002 5,2.9995 10.9999,0.9998 14.9997,-5 3.9993,-5.9999 10.9999,-8 16,-5.0001 5,3.9993 9.0003,1.9996 9.0003,-3.9993 0,-6.0004 19.9997,-10.0001 45,-9.0003 24.9998,0 51.9998,-5.0001 59.9998,-11.9998 8.9998,-7.0001 18.9999,-10.0001 23.0002,-5.9998 3.9992,3.9993 -1.9997,13.9998 -12.0003,20.9995 -16,13.0001 -11.9997,14.0004 39.0002,10.0002 46.9997,-2.9995 56,-1.9997 50.9999,10.0001 -2.9994,8.9998 0.9999,15.0002 10.0002,15.0002 8,0 16.9998,6.9997 19.9997,14.9997 3.9993,8 11,15.0001 16,15.0001 5.9999,0 5.0001,-5.9998 -1.9996,-15.0001 -9.9997,-11.9998 -9.9997,-14.9997 3.9993,-14.9997 8.9998,0 16,8 16,19.9997 0,16 -7.0002,20.0003 -35,20.0003 -52.0002,0 -160,56.9998 -218.9999,114.9999 -29.0001,29.0001 -50.0001,56.9998 -48,62.9997 1.9996,6.0004 -9.0003,18.0001 -23.0002,28.0002 -32.9998,21.9999 -85.0001,96 -85.0001,123 0,13.9999 8,23.0002 25.0003,26.9999 29.9999,7.0002 38.9997,32 24.9999,69.0001 -12.0003,31.0002 -7.0002,40 47.0001,88 19,16.9998 29.9999,34.0001 25.9997,40.9998 -3.9993,6.0004 -8.9998,20.0002 -9.9997,30.0004 -5,30.9997 -23.0001,45.9998 -54.0003,45.9998 -32,0 -94.9997,34.0002 -107.9998,59 -23.0002,40.9998 16,101 66.0001,101 24.9999,0 38.9997,14.9997 21.9999,26.0002 -8,4.9995 -7.0002,8.9998 1.9997,13.9998 9.9996,6.9997 8.9998,16.9999 -3.9993,50.0002 l -16,42.9999 29.9999,27.9998 c 17.0003,16 37,29 45,29 16,0 18.0001,23.0002 3.9993,50.0001 -9.0003,16 -18.0001,19 -54.0003,13.9999 l -43.9998,-5.9999 -24,53.0001 c -13.9999,29.9999 -21.0001,56 -16,56.9998 5.0001,1.9997 26.9999,-2.9994 48.9998,-11.9997 47.0002,-19.0005 79.0002,-20.0003 114.0001,-3.9993 26.0002,10.9999 34.0002,40.9998 13.9999,53.9999 -6.9997,3.9992 -8,20.0002 -3.9993,41.0002 5.0001,25.9997 1.9997,40 -10.9999,53.9999 -17.0003,19 -17.0003,19.9998 0.9998,13.0001 13.0001,-5.0001 16,-3.9993 10.9999,3.9993 -5,9.0003 5.9999,12.0002 39.0002,12.0002 107,0 245.0001,50.0001 245.0001,88 0,10.0001 3.9993,21.9999 8.9998,27 34.9999,39.0001 29.9999,125 -8,125 -19.9998,0 -31.0002,18.0001 -31.0002,53.9999 0,26.0001 -24,50.0001 -72,74.0001 -17.9996,10.0001 -34.9999,26.0001 -36.9996,37.0001 -2.9994,18.9999 -2.9994,18.9999 16,2.9994 11,-10.0001 33.9997,-18.0001 51,-18.0001 17.9996,0 32,-3.9993 32,-8.9998 0,-13.0001 46.9997,-24 114.9999,-26.0001 83,-3.9993 120,18.0001 131,74.0001 3.9993,16.9998 8.9998,30.9997 13,30.9997 11.9998,0 37.9999,54.0004 45.0001,90.9999 3.9993,23.0002 18.9999,46.0004 40.9998,66.0002 24.9998,21.9998 32.9998,36.0002 28.0002,49.0003 -6.0003,14.9997 -7.0001,14.9997 -14.0003,-5.0001 -8,-20.0002 -35,-38.0004 -43.9998,-29.0001 -2.9994,1.9997 5.9999,19.9998 19.9998,37.9999 14.0003,19 25.0003,44.0003 25.0003,55.0002 0,13.0001 5.9999,21.9999 16,21.9999 10.9999,0 13.9999,-7.0002 10.9999,-23.0002 -1.9996,-13.0001 1.9997,-24.9998 8.9998,-27.9998 9.0003,-2.9994 17.0003,8.9999 25.0003,37.0001 25.9997,93.9999 32,107.9998 59.9998,137.9996 39.0002,41.0003 52.0002,107.0005 34.0001,160 -13,36.0003 -17.0003,149.0001 -5.9999,146.0002 8,-1.9997 91,82.9999 91,93 0,5.0001 13.9999,11 29.9999,15.0002 16.9998,3.9993 29.9998,10.9999 29.9998,16.9998 0,5.9999 13.0001,8 35,3.9993 22.0003,-3.9993 34.9999,-2.9995 34.9999,3.9993 0,5.0001 -4.9996,10.0001 -10.9999,10.0001 -5.0001,0 -8,3.9993 -5.0001,8.9999 11.0004,17.0002 136,52.0002 189.0001,52.0002 50.9999,0.9998 55.0002,2.9995 60.0002,27.9998 3.9993,15.0001 19,33.0002 37.9999,44.0002 24.9998,13.9999 29.9999,21.9999 24.9998,40 -4.9996,19.9998 13.0001,66.9999 70.0008,177.9996 8.999,17.0003 11,43.0004 8,76.0003 -5,39.0001 -3,53 11.999,66.9999 17.001,16.9998 29,99 26,181.0001 0,16.9998 -1.999,74.9999 -3.999,130.0001 -3.999,94.9997 3,125 28,125 11,0 33,30.9998 55.001,80 35,78.9998 43,91.9998 67,113.9997 30.999,29.0001 109.999,138.9999 121.999,170.0001 23,60.0002 22.001,132.0002 -2.999,220.0002 -14,48 -28,89.9997 -31,92.9996 -3.999,3.9993 -33,10.0002 -65,14.0004 -64,6.9997 -65,8 -146,85.9999 -30,27.9997 -79,66.0001 -110,82.9999 -49.9999,29.0001 -59.0002,31.0002 -99.0002,21.9999 -32,-6.9997 -50.0002,-5.0001 -69.9999,5.0001 -15.0002,8 -31.0002,10.9999 -37.0001,8 -5,-3.9993 -21,0 -34.0001,9.0002 -29.9999,19.9998 -88.9998,30.9998 -80,14.9998 5.0001,-8 0,-8.9999 -16,-3.9993 -29.0001,9.9996 -46.9997,26.9999 -41.9996,40.9998 1.9996,7.0002 -2.9995,18.9999 -12.0003,26.9999 -8,9.0003 -15.0002,20.0003 -15.0002,26.0001 0,5.9999 -3.9992,11 -9.9996,11 -5.0001,0 -10.0001,-3.9993 -10.0001,-10.0001 0,-11 -71.0002,18.9999 -82.0001,34.9999 -3.9993,6.0004 -8,6.0004 -8,0.9998 0,-5 -5.9999,-2.9994 -13.9999,2.9995 -13.9999,10.9999 -39.0002,18.9999 -83,26.0001 -26.9999,3.9993 -61.9998,-20.0002 -74.0001,-52.0002 -16,-42.0001 -18.9999,-21.0001 -3.9993,21.9999 19.9998,58.0001 19,62.0003 -22.0003,68.0002 -22.9997,3.9993 -43,15.0002 -51,26.9999 -6.9997,11 -18.0001,20.0003 -26.0001,20.0003 -13.9999,0 -13.9999,13.9999 0,72 3.9993,19.9997 0,34.9999 -16.9998,56.9998 -13.0001,16 -29.0001,29.9999 -34.0001,29.9999 -11.9998,0.9998 -35,77.9999 -35,119.0002 0,22.9997 -38.9997,90.9999 -40,69.9998 0,-3.9993 -24.9998,16.9999 -56.9998,47.0002 -31.0002,29.9999 -61,54.9997 -68.0002,54.9997 -6.9997,0 -25.9997,7.0002 -43.9998,16 -36.0002,18.0001 -152,28.0003 -161.0003,14.0004 -10.9999,-18.0001 -84.9996,10.9999 -128,50.9999 -24,21.0001 -48,38.9997 -52.9996,38.9997 -5,0 -9.0003,10.0001 -9.0003,23.0002 -0.9998,11.9998 -8.9998,32 -18.9999,43.9998 -27.9998,34.0001 -109.9999,81.0003 -130.0001,76.0002 -21.9999,-5.9999 -37.0001,13.0001 -24,29.9999 15.0002,20.0002 9.0003,41.0003 -13.9999,52.0002 -13.0001,5.0001 -23.0002,13.0001 -23.0002,16.9998 0,5.0001 -8,8 -17.9996,8 -10.0001,0 -24,5.9999 -30.0004,12.0003 -9.9996,9.9996 -14.9997,9.9996 -21.9999,-1.9997 -5.9998,-9.0003 -10.0001,-10.0001 -10.0001,-2.9994 0,5.9998 -2.9995,17.9996 -5.9999,26.9999 -3.9993,10.0001 -0.9998,16 8,16 8,0 23.0002,6.9997 34.0002,14.9997 16.9998,15.0002 10.9999,15.0002 -76.0003,11.0004 -51.9997,-2.9995 -97.9996,-6.0003 -101.9999,-6.0003 -5,0 -8,-5.9999 -8,-13.0001 0,-8 -10.9999,-18.9999 -24,-25.9996 -29.9998,-16 -96,1.9996 -96,25.9996 0,13.0001 -11.9997,14.0004 -85,8 l -85.0001,-6.9997 0,26.0001 c 0,28.9996 -48,65.9997 -86.9997,65.9997 -17.0003,0 -23.0002,6.0003 -23.0002,23.0001 0,29.0001 -6.9997,37.0001 -26.0001,29.9999 -8,-2.9994 -13.9999,-18.9999 -13.9999,-38.9997 0,-28.0002 -3.9993,-35.0004 -26.9999,-40 -16,-3.9993 -40.9998,-16 -56.9998,-27.0004 -25.0003,-17.9996 -29.0001,-17.9996 -23.0002,-3.9993 2.9995,8.9998 1.9996,16.9998 -2.9995,16.9998 -5.9999,0 -10.0001,9.0003 -10.0001,20.0003 0,11.9997 7.0002,19.9997 16,19.9997 18.0001,0 42.9999,27 44.0002,47.0002 0,19.9998 -33.0003,31.0002 -62.0003,19 z m 42.0002,-235.9998 c 0,-24 -16,-50.0001 -29.9999,-50.0001 -3.9993,0 -13.0001,16.9998 -20.0003,38.9997 C 7558.9997,7872.9998 7560,7880 7576,7898.9999 l 17.9996,21.0001 13.0001,-23.0002 c 7.0002,-11.9997 12.0002,-32.9998 13.0001,-46.9997 z m 186.9999,-2193.0003 c 14.0004,-16 18.9999,-27.9997 13.0001,-37 -6.9997,-11.9998 -10.0002,-11 -16,2.9994 -2.9995,9.0003 -11.9998,17.0003 -19,17.0003 -7.0002,0 -15.0002,8.9999 -18.0001,19.9998 -6.9997,26.9999 13.0001,25.0003 40,-2.9995 z m 1933.0001,-646.9997 c 0,-5 -1.9997,-10.0001 -3.9993,-10.0001 -2.9995,0 -8,5.0001 -11,10.0001 -2.9994,5.9999 -0.9998,9.9997 3.9993,9.9997 5.9999,0 11,-3.9993 11,-9.9997 z m -373.0001,-652.0002 c -2.9995,-8 -5.9999,-5.0001 -5.9999,5.9999 -0.9998,10.9999 1.9997,17.0003 5.0001,13 2.9995,-2.9994 3.9993,-11.9997 0.9998,-18.9999 z M 8645.0001,3320 c 2.9994,-5.0001 -2.9995,-10.0001 -14.0004,-10.0001 -11.9998,0 -21.0001,5 -21.0001,10.0001 0,5.9999 6.0004,10.0001 14.0004,10.0001 8,0 17.9996,-3.9993 21.0001,-10.0001 z M 8104,3154.9999 c -3.9993,-8 -10.0001,-12.0002 -15.0002,-8.9998 -10.9999,5.9999 -1.9996,24 11,24 5,0 7.0001,-7.0002 3.9993,-15.0002 z m -18.9999,-36.0002 c 9.9996,-29.9999 0,-32.9998 -13.0001,-3.9993 -6.0004,13.9999 -7.0002,24.9998 -1.9996,24.9998 5,0 11.9997,-8.9998 15.0001,-21 z m 44.9995,-32.9998 c 0,-1.9997 -6.9997,-5.9999 -14.9997,-10.0001 -8,-2.9995 -15.0001,-0.9999 -15.0001,3.9993 0,5.9998 7.0001,10.0001 15.0001,10.0001 8,0 14.9997,-1.9997 14.9997,-3.9993 z m 450.0002,-635.9998 c 0,-24 17.0003,-34.0001 55.0001,-32 29.0001,1.9997 29.0001,0.9998 6.9997,-11.0004 -11.9997,-6.9997 -18.9999,-16.9998 -14.9997,-22.9997 5.0001,-5.0001 -0.9998,0 -10.9999,10.9999 -14.0004,15.0002 -20.0002,16.9999 -24,7.0002 -1.9996,-9.0003 -9.0003,-3.9993 -18.0001,12.9996 -16,32 -19,69.0001 -3.9993,60.0002 6.0003,-2.9994 10.0001,-15.0001 10.0001,-24.9998 z m -64.9999,0.9998 c -2.9994,-5.9998 -13.9998,-10.9999 -23.0001,-10.9999 -13.0001,0 -13.0001,1.9996 3.9993,13.9999 21,15.0002 29.9998,13.9999 18.9999,-2.9995 z"
           id="map"
           inkscape:connector-curvature="0">
          <title
             id="title4324">North America</title>
        </path>
      </g>
    </g>
    <rect
       style="fill:#4a4a4a;fill-opacity:1;stroke:none"
       id="rect3946"
       width="176"
       height="6.9999976"
       x="177.38908"
       y="617.25269"
       ry="3.4999988" />
    <rect
       ry="1.875"
       y="596.57941"
       x="305.3891"
       height="6.25"
       width="25"
       id="rect3952"
       style="fill:url(#radialGradient3964);fill-opacity:1;stroke:none" />
    <rect
       style="fill:url(#radialGradient3988);fill-opacity:1;stroke:none"
       id="camera"
       width="159.00865"
       height="103.60141"
       x="186.38625"
       y="599.67432"
       inkscape:label="#camera"
       ry="5.9041767" />
    <rect
       y="625.13464"
       x="186.37956"
       height="63.476788"
       width="159.00586"
       id="rect4271"
       style="fill:url(#radialGradient4008);fill-opacity:1;stroke:none" />
    <rect
       style="fill:#808080;fill-opacity:1;stroke:none"
       id="rect3916"
       width="35.045349"
       height="17.83497"
       x="252.38908"
       y="604.25269"
       ry="1.9816633" />
    <rect
       y="604.25269"
       x="285.35983"
       height="17.999985"
       width="37.02927"
       id="rect3918"
       style="fill:#000000;fill-opacity:1;stroke:none" />
    <rect
       style="fill:none;stroke:#e1e1e1;stroke-width:1.13178802;stroke-opacity:1"
       id="rect3926"
       width="92.129684"
       height="21.613138"
       x="249.38908"
       y="602.25269"
       ry="2.4471059" />
    <rect
       style="fill:#999999;stroke:none"
       id="rect3940"
       width="10.000007"
       height="19.763998"
       x="222.38908"
       y="661.25269"
       ry="0" />
    <path
       sodipodi:type="arc"
       style="fill:#999999;fill-opacity:1;stroke:#ececec;stroke-width:0.87010491;stroke-miterlimit:4;stroke-opacity:1;stroke-dasharray:none"
       id="path3942"
       sodipodi:cx="74.59594"
       sodipodi:cy="263.98349"
       sodipodi:rx="3.185868"
       sodipodi:ry="3.185868"
       d="m 77.781808,263.98349 c 0,1.75951 -1.426362,3.18587 -3.185868,3.18587 -1.759507,0 -3.185868,-1.42636 -3.185868,-3.18587 0,-1.75951 1.426361,-3.18587 3.185868,-3.18587 1.759506,0 3.185868,1.42636 3.185868,3.18587 z"
       transform="matrix(1.8201122,0,0,1.7301572,92.414748,224.29895)" />
    <path
       sodipodi:type="arc"
       style="fill:#0f0f0f;fill-opacity:1;stroke:#dfdfdf;stroke-width:4.08465481;stroke-miterlimit:4;stroke-opacity:1;stroke-dasharray:none"
       id="path4321"
       sodipodi:cx="309.12967"
       sodipodi:cy="665.51929"
       sodipodi:rx="33.773365"
       sodipodi:ry="33.773365"
       d="m 342.90303,665.51929 c 0,18.65251 -15.12085,33.77336 -33.77336,33.77336 -18.65252,0 -33.77337,-15.12085 -33.77337,-33.77336 0,-18.65252 15.12085,-33.77337 33.77337,-33.77337 18.65251,0 33.77336,15.12085 33.77336,33.77337 z"
       transform="matrix(1.2240936,0,0,1.2240936,-108.87582,-154.00844)" />
    <path
       d="m 342.90303,665.51929 c 0,18.65251 -15.12085,33.77336 -33.77336,33.77336 -18.65252,0 -33.77337,-15.12085 -33.77337,-33.77336 0,-18.65252 15.12085,-33.77337 33.77337,-33.77337 18.65251,0 33.77336,15.12085 33.77336,33.77337 z"
       sodipodi:ry="33.773365"
       sodipodi:rx="33.773365"
       sodipodi:cy="665.51929"
       sodipodi:cx="309.12967"
       id="path4323"
       style="fill:#0f0f0f;fill-opacity:1;stroke:#2b2b2b;stroke-width:7.26249647;stroke-miterlimit:4;stroke-opacity:1;stroke-dasharray:none"
       sodipodi:type="arc"
       transform="matrix(-0.75449045,0.18721819,-0.18721819,-0.75449045,626.66406,1104.956)" />
    <path
       transform="matrix(0.41024663,0,0,0.41024663,142.70843,387.62243)"
       sodipodi:type="arc"
       style="fill:#0a0629;fill-opacity:1;stroke:#000000;stroke-width:7.26249647;stroke-miterlimit:4;stroke-opacity:1;stroke-dasharray:none"
       id="path4325"
       sodipodi:cx="309.12967"
       sodipodi:cy="665.51929"
       sodipodi:rx="33.773365"
       sodipodi:ry="33.773365"
       d="m 342.90303,665.51929 c 0,18.65251 -15.12085,33.77336 -33.77336,33.77336 -18.65252,0 -33.77337,-15.12085 -33.77337,-33.77336 0,-18.65252 15.12085,-33.77337 33.77337,-33.77337 18.65251,0 33.77336,15.12085 33.77336,33.77337 z" />
    <text
       xml:space="preserve"
       style="font-size:5px;font-style:normal;font-variant:normal;font-weight:normal;font-stretch:normal;text-align:center;line-height:125%;letter-spacing:0px;word-spacing:0px;writing-mode:lr-tb;text-anchor:middle;fill:#ffffff;fill-opacity:1;stroke:none;font-family:Continuum Medium;-inkscape-font-specification:'Continuum Medium,'"
       id="text4327"
       sodipodi:linespacing="125%"
       transform="translate(4.3028828,-0.46102315)"><textPath
         xlink:href="#path4323"
         startOffset="50%"
         id="textPath4342">1:2.8</textPath></text>
    <text
       xml:space="preserve"
       style="font-size:40px;font-style:normal;font-weight:normal;line-height:125%;letter-spacing:0px;word-spacing:0px;fill:#000000;fill-opacity:1;stroke:none;font-family:Sans"
       id="text4345"
       sodipodi:linespacing="125%"
       transform="translate(-3.995534,-1.3830695)"><textPath
         xlink:href="#path4323"
         id="textPath4349"><tspan
   style="font-size:5px;font-style:normal;font-variant:normal;font-weight:normal;font-stretch:normal;text-align:start;line-height:125%;writing-mode:lr-tb;text-anchor:start;fill:#ffffff;font-family:Continuum Medium;-inkscape-font-specification:'Continuum Medium,'"
   id="tspan4347">f=38mm</tspan></textPath></text>
    <path
       sodipodi:type="arc"
       style="fill:#ffffff;fill-opacity:1;stroke:none;filter:url(#filter3877)"
       id="path3060"
       sodipodi:cx="357.75397"
       sodipodi:cy="467.47745"
       sodipodi:rx="141.38043"
       sodipodi:ry="26.739344"
       d="m 499.1344,467.47745 c 0,14.76773 -63.29818,26.73934 -141.38043,26.73934 -78.08226,0 -141.38043,-11.97161 -141.38043,-26.73934 0,-14.76773 63.29817,-26.73935 141.38043,-26.73935 78.08225,0 141.38043,11.97162 141.38043,26.73935 z"
       transform="matrix(0.78922682,0,0,1.0902147,80.937221,-37.870463)"
       clip-path="url(#clipPath3900)" />
    <rect
       style="fill:#000000;fill-opacity:1;stroke:none"
       id="rect3920"
       width="8.144742"
       height="6.1469755"
       x="258.38998"
       y="609.17902" />
    <rect
       y="612.25269"
       x="261.3891"
       height="1.9999762"
       width="3.0000107"
       id="rect3922"
       style="fill:#ffe680;fill-opacity:1;stroke:none" />
    <rect
       y="610.25269"
       x="298.3891"
       height="4.9999681"
       width="7.9999785"
       id="rect3924"
       style="fill:#80b3ff;fill-opacity:1;stroke:none" />
    <path
       sodipodi:type="arc"
       style="fill:#000000;fill-opacity:1;stroke:none"
       id="path3990"
       sodipodi:cx="32.035606"
       sodipodi:cy="200.38814"
       sodipodi:rx="2.8286059"
       sodipodi:ry="2.8286059"
       d="m 34.864212,200.38814 c 0,1.56219 -1.26641,2.8286 -2.828606,2.8286 -1.562196,0 -2.828606,-1.26641 -2.828606,-2.8286 0,-1.5622 1.26641,-2.82861 2.828606,-2.82861 1.562196,0 2.828606,1.26641 2.828606,2.82861 z"
       transform="matrix(0.81395348,0,0,0.81395348,154.88386,457.65939)" />
    <path
       transform="matrix(0.75581394,0,0,0.75581394,325.60021,469.26052)"
       d="m 34.864212,200.38814 c 0,1.56219 -1.26641,2.8286 -2.828606,2.8286 -1.562196,0 -2.828606,-1.26641 -2.828606,-2.8286 0,-1.5622 1.26641,-2.82861 2.828606,-2.82861 1.562196,0 2.828606,1.26641 2.828606,2.82861 z"
       sodipodi:ry="2.8286059"
       sodipodi:rx="2.8286059"
       sodipodi:cy="200.38814"
       sodipodi:cx="32.035606"
       id="path3992"
       style="fill:#2e2d5f;fill-opacity:1;stroke:none"
       sodipodi:type="arc" />
    <path
       sodipodi:type="arc"
       style="opacity:0.63869467;fill:#000000;fill-opacity:1;stroke:#4e4e4e;stroke-width:1;stroke-miterlimit:4;stroke-opacity:1;stroke-dasharray:none"
       id="path4010"
       sodipodi:cx="119.07729"
       sodipodi:cy="211.73431"
       sodipodi:rx="4.0932822"
       sodipodi:ry="4.0932822"
       d="m 123.17058,211.73431 c 0,2.26066 -1.83263,4.09329 -4.09329,4.09329 -2.26065,0 -4.09328,-1.83263 -4.09328,-4.09329 0,-2.26065 1.83263,-4.09328 4.09328,-4.09328 2.26066,0 4.09329,1.83263 4.09329,4.09328 z"
       transform="translate(150.83865,420.42264)" />
  </g>
</svg>
